<?xml version="1.0" encoding="UTF-8" ?>
<svg xmlns="http://www.w3.org/2000/svg" version="1.1">
<polyline points="28.999,65.2738 31.8721,50.994 47.4903,61.7186 32.7456,25.9109 48.5255,34.9222 45.3492,68.4098 48.6762,69.042 36.2184,38.827 25.4924,47.7694 50.8039,35.2619 37.9963,45.1079 23.7646,61.2579 50.3376,27.2318 52.3002,50.8189 53.3997,28.7792 53.807,39.8846 44.5211,62.1356 43.5044,43.333 34.7338,25.767 27.3663,36.6079 27.0102,37.0694 27.3663,36.6079 34.7338,25.767 43.5044,43.333 44.5211,62.1356 53.807,39.8846 53.3997,28.7792 52.3002,50.8189 50.3376,27.2318 23.7646,61.2579 37.9963,45.1079 50.8039,35.2619 25.4924,47.7694 36.2184,38.827 48.6762,69.042 45.3492,68.4098 48.5255,34.9222 32.7456,25.9109 47.4903,61.7186 31.8721,50.994 28.999,65.2738" fill="none" stroke="rgba(159,113,113,0.695009)" stroke-width="3.80668" stroke-linecap="round" stroke-linejoin="round" />
<polyline points="43.1964,39.4247 40.347,50.9925 42.4675,48.5748 27.0102,37.0694 34.5768,34.8313 37.3552,23.8975 23.9172,39.2447 47.1093,34.6718 24.8073,51.2396 52.653,28.3372 53.1512,26.1951 37.9963,45.1079 43.3088,57.5348 50.5011,46.1635 47.4323,32.8978 52.2102,49.9061 47.6209,34.6648 50.0395,28.7465 52.653,28.3372 44.15,49.2954 41.3554,40.7081 53.1977,68.5983 41.3554,40.7081 44.15,49.2954 52.653,28.3372 50.0395,28.7465 47.6209,34.6648 52.2102,49.9061 47.4323,32.8978 50.5011,46.1635 43.3088,57.5348 37.9963,45.1079 53.1512,26.1951 52.653,28.3372 24.8073,51.2396 47.1093,34.6718 23.9172,39.2447 37.3552,23.8975 34.5768,34.8313 27.0102,37.0694 42.4675,48.5748 40.347,50.9925 43.1964,39.4247" fill="none" stroke="rgb(28,116,43)" stroke-width="3.80668" stroke-linecap="round" stroke-linejoin="round" />
<polyline points="53.1512,26.1951 27.739,30.7568 37.3552,23.8975 42.0127,71.2678 29.3752,50.1785 34.295,53.681 53.1512,26.1951 40.0062,54.8282 26.9595,38.2978 37.3552,23.8975 26.5947,27.9811 39.7443,27.2183 51.4522,62.314 34.5768,34.8313 44.15,49.2954 24.8756,65.1961 24.5626,27.5781 52.3002,50.8189 23.7646,61.2579 43.1964,39.4247 33.9946,68.2328 45.5864,61.764 43.5044,43.333 25.4924,47.7694 40.347,50.9925 53.3997,28.7792 48.5255,34.9222 53.3997,28.7792 40.347,50.9925 25.4924,47.7694 43.5044,43.333 45.5864,61.764 33.9946,68.2328 43.1964,39.4247 23.7646,61.2579 52.3002,50.8189 24.5626,27.5781 24.8756,65.1961 44.15,49.2954 34.5768,34.8313 51.4522,62.314 39.7443,27.2183 26.5947,27.9811 37.3552,23.8975 26.9595,38.2978 40.0062,54.8282 53.1512,26.1951 34.295,53.681 29.3752,50.1785 42.0127,71.2678 37.3552,23.8975 27.739,30.7568 53.1512,26.1951" fill="none" stroke="rgb(214,127,135)" stroke-width="3.80668" stroke-linecap="round" stroke-linejoin="round" />
<polyline points="43.3088,57.5348 40.347,50.9925 34.5768,34.8313 36.222,54.1485 48.5255,34.9222 28.258,53.4813 31.3384,69.8498 25.3903,68.0127 34.5768,34.8313 48.5468,23.7527 53.807,39.8846 45.3492,68.4098 48.6762,69.042 27.0102,37.0694 50.8039,35.2619 53.3997,28.7792 34.5768,34.8313 48.6762,69.042 23.7646,61.2579 37.6047,63.3497 47.6617,59.4853 53.1512,26.1951 27.1322,25.5395 26.2209,42.7327 27.739,30.7568 50.8039,35.2619 31.8721,50.994 52.653,28.3372 31.8721,50.994 47.6209,34.6648 44.5211,62.1356 40.4546,48.4947 51.4522,62.314 54.1724,35.0457 27.1322,25.5395 32.7456,25.9109 45.5864,61.764 47.6209,34.6648 25.3903,68.0127 34.7338,25.767 23.7646,61.2579 34.7338,25.767 37.682,38.5977 36.1193,48.6127 31.9092,39.8813 42.0127,71.2678 28.258,53.4813 45.5864,61.764 28.2395,62.915 33.7822,44.1148 49.8024,43.5967 50.3376,27.2318 52.2102,49.9061 25.3903,68.0127 37.682,38.5977 26.5947,27.9811 36.1193,48.6127 49.8024,43.5967 25.7623,46.704 36.2111,57.8161 37.6047,63.3497 34.5768,34.8313 33.9946,68.2328 53.5102,49.4488 47.4323,32.8978 33.9946,68.2328 47.6617,59.4853 34.7338,25.767 53.1977,68.5983 27.0051,55.7301 31.5923,26.3805 41.4908,57.6783 35.0572,53.6018 28.2395,62.915 51.4522,62.314 26.2209,42.7327 34.7338,25.767 52.2158,69.1803 35.9347,44.8125 49.8024,43.5967 24.5626,27.5781 54.1724,35.0457 31.9092,39.8813 52.3002,50.8189 48.5468,23.7527 53.5102,49.4488 42.4675,48.5748 45.5864,61.764 50.5011,46.1635 37.9963,45.1079 35.9347,44.8125 40.0062,54.8282 50.1106,40.6409 50.3376,27.2318 43.3088,57.5348 28.258,53.4813 40.4546,48.4947 43.3088,57.5348" fill="none" stroke="rgb(195,213,229)" stroke-width="3.80668" stroke-linecap="round" stroke-linejoin="round" />
<polyline points="33.3636,43.7857 25.4924,47.7694 31.5923,26.3805 48.5468,23.7527 28.258,53.4813 37.0739,30.9535 53.3997,28.7792 44.15,49.2954 37.3552,23.8975 27.739,30.7568 29.1779,48.4083 50.5011,46.1635 27.8068,25.4897 27.739,30.7568 41.4908,57.6783 36.2111,57.8161 27.739,30.7568 27.102,25.6043 42.9024,28.3818 28.258,53.4813 53.3997,28.7792 25.3903,68.0127 34.7338,25.767 24.5626,27.5781 34.7338,25.767 25.3903,68.0127 53.3997,28.7792 28.258,53.4813 42.9024,28.3818 27.102,25.6043 27.739,30.7568 36.2111,57.8161 41.4908,57.6783 27.739,30.7568 27.8068,25.4897 50.5011,46.1635 29.1779,48.4083 27.739,30.7568 37.3552,23.8975 44.15,49.2954 53.3997,28.7792 37.0739,30.9535 28.258,53.4813 48.5468,23.7527 31.5923,26.3805 25.4924,47.7694 33.3636,43.7857" fill="none" stroke="rgba(168,47,252,0.656933)" stroke-width="3.80668" stroke-linecap="round" stroke-linejoin="round" />
<polyline points="27.0051,55.7301 47.6209,34.6648 51.3955,70.0096 31.9092,39.8813 53.1977,68.5983 31.8846,37.855 31.3384,69.8498 42.0127,71.2678 27.739,30.7568 24.8073,51.2396 27.1322,25.5395 27.739,30.7568 29.3752,50.1785 27.0051,55.7301" fill="none" stroke="rgba(240,209,89,0.0946878)" stroke-width="3.80668" stroke-linecap="round" stroke-linejoin="round" />
<polyline points="50.5011,46.1635 35.0572,53.6018 25.3903,68.0127 52.3002,50.8189 42.6346,35.4021 26.9595,38.2978 23.9172,39.2447 43.3088,57.5348 40.4546,48.4947 37.8188,36.281 52.653,28.3372 37.6047,63.3497 50.8039,35.2619 39.7443,27.2183 29.3752,50.1785 45.5864,61.764 50.5011,46.1635" fill="none" stroke="rgba(47,252,151,0.8751)" stroke-width="3.80668" stroke-linecap="round" stroke-linejoin="round" />
<polyline points="52.653,28.3372 42.2059,64.9943 36.1193,48.6127 28.258,53.4813 42.9024,28.3818 50.1106,40.6409 35.0572,53.6018 23.7527,41.0832 23.9172,39.2447 25.7623,46.704 37.6047,63.3497 47.4323,32.8978 26.2209,42.7327 40.0062,54.8282 28.999,65.2738 53.5102,49.4488 37.6047,63.3497 27.0051,55.7301 31.8846,37.855 34.7338,25.767 37.682,38.5977 24.8073,51.2396 27.102,25.6043 42.2059,64.9943 29.8475,38.4342 38.0179,39.0173 53.1512,26.1951 53.5102,49.4488 34.295,53.681 23.7527,41.0832 48.6762,69.042 50.3376,27.2318 36.2111,57.8161 42.9024,28.3818 52.653,28.3372 50.8039,35.2619 52.653,28.3372 42.9024,28.3818 36.2111,57.8161 50.3376,27.2318 48.6762,69.042 23.7527,41.0832 34.295,53.681 53.5102,49.4488 53.1512,26.1951 38.0179,39.0173 29.8475,38.4342 42.2059,64.9943 27.102,25.6043 24.8073,51.2396 37.682,38.5977 34.7338,25.767 31.8846,37.855 27.0051,55.7301 37.6047,63.3497 53.5102,49.4488 28.999,65.2738 40.0062,54.8282 26.2209,42.7327 47.4323,32.8978 37.6047,63.3497 25.7623,46.704 23.9172,39.2447 23.7527,41.0832 35.0572,53.6018 50.1106,40.6409 42.9024,28.3818 28.258,53.4813 36.1193,48.6127 42.2059,64.9943 52.653,28.3372" fill="none" stroke="rgba(59,108,101,0.408206)" stroke-width="3.80668" stroke-linecap="round" stroke-linejoin="round" />
<polyline points="31.8721,50.994 26.5947,27.9811 32.7456,25.9109 51.4522,62.314 43.3088,57.5348 53.5102,49.4488 24.8073,51.2396 23.7527,41.0832 42.6346,35.4021 52.3002,50.8189 36.2111,57.8161 42.2059,64.9943 33.9993,40.4211 43.3088,57.5348 23.7646,61.2579 37.8188,36.281 37.6047,63.3497 29.1779,48.4083 41.8231,61.719 37.0739,30.9535 37.6047,63.3497 27.8068,25.4897 52.2102,49.9061 42.6346,35.4021 28.258,53.4813 52.2158,69.1803 47.4323,32.8978 27.0102,37.0694 52.2158,69.1803 32.7456,25.9109 53.5102,49.4488 44.15,49.2954 25.4924,47.7694 29.8475,38.4342 28.258,53.4813 47.4903,61.7186 45.3492,68.4098 27.3663,36.6079 47.6209,34.6648 43.1964,39.4247 48.6762,69.042 39.7443,27.2183 47.4903,61.7186 25.3903,68.0127 27.0051,55.7301 27.3663,36.6079 48.5468,23.7527 42.9024,28.3818 31.8846,37.855 43.1964,39.4247 31.3384,69.8498 37.0739,30.9535 42.2059,64.9943 37.8188,36.281 50.5011,46.1635 32.2293,33.1287 50.5011,46.1635 36.2184,38.827 42.2059,64.9943 26.5947,27.9811 26.2209,42.7327 53.1977,68.5983 28.999,65.2738 41.4908,57.6783 45.3492,68.4098 36.2111,57.8161 28.258,53.4813 27.0102,37.0694 53.1512,26.1951 27.1322,25.5395 37.0739,30.9535 37.682,38.5977 28.8437,37.4555 52.3002,50.8189 28.999,65.2738 36.1193,48.6127 27.102,25.6043 50.1106,40.6409 23.9172,39.2447 33.9946,68.2328 48.5255,34.9222 53.1512,26.1951 31.8721,50.994" fill="none" stroke="rgba(159,113,113,0.695009)" stroke-width="3.80668" stroke-linecap="round" stroke-linejoin="round" />
<polyline points="31.8721,50.994 27.102,25.6043 42.6346,35.4021 24.8073,51.2396 25.7623,46.704 32.2293,33.1287 53.1512,26.1951 53.807,39.8846 48.6762,69.042 35.0572,53.6018 48.6762,69.042 53.807,39.8846 53.1512,26.1951 32.2293,33.1287 25.7623,46.704 24.8073,51.2396 42.6346,35.4021 27.102,25.6043 31.8721,50.994" fill="none" stroke="rgb(28,116,43)" stroke-width="3.80668" stroke-linecap="round" stroke-linejoin="round" />
<polyline points="34.7338,25.767 31.5923,26.3805 53.1977,68.5983 50.0395,28.7465 42.4675,48.5748 33.3636,43.7857 47.4903,61.7186 28.2395,62.915 27.0102,37.0694 43.5044,43.333 47.4323,32.8978 37.8188,36.281 36.2184,38.827 47.1093,34.6718 47.6209,34.6648 33.3636,43.7857 39.7443,27.2183 47.4323,32.8978 31.8721,50.994 36.2184,38.827 47.6209,34.6648 25.3903,68.0127 50.3376,27.2318 31.8721,50.994 47.6617,59.4853 35.9347,44.8125 43.3088,57.5348 27.102,25.6043 29.1779,48.4083 43.3088,57.5348 47.1093,34.6718 47.4903,61.7186 44.15,49.2954 41.3554,40.7081 52.2158,69.1803 50.0395,28.7465 27.3663,36.6079 28.8437,37.4555 50.1106,40.6409 36.222,54.1485 49.8024,43.5967 53.1512,26.1951 34.7338,25.767 43.5044,43.333 33.3636,43.7857 54.1724,35.0457 27.102,25.6043 37.9963,45.1079 36.2184,38.827 23.7527,41.0832 27.0102,37.0694 27.3663,36.6079 26.5947,27.9811 28.8437,37.4555 36.222,54.1485 36.2111,57.8161 37.9963,45.1079 27.0051,55.7301 36.1193,48.6127 24.8756,65.1961 27.739,30.7568 34.5768,34.8313 50.8039,35.2619 26.2209,42.7327 25.4924,47.7694 26.9595,38.2978 36.222,54.1485 43.3088,57.5348 41.3554,40.7081 27.102,25.6043 23.7646,61.2579 28.999,65.2738 36.222,54.1485 45.3492,68.4098 27.0051,55.7301 23.7527,41.0832 52.3002,50.8189 37.682,38.5977 28.8437,37.4555 32.2293,33.1287 52.653,28.3372 32.7456,25.9109 33.9946,68.2328 50.8039,35.2619 23.7527,41.0832 53.1512,26.1951 34.295,53.681 41.8231,61.719 32.2293,33.1287 52.2102,49.9061 28.8437,37.4555 41.8231,61.719 51.3955,70.0096 52.653,28.3372 47.6617,59.4853 36.1193,48.6127 23.9172,39.2447 34.7338,25.767" fill="none" stroke="rgb(214,127,135)" stroke-width="3.80668" stroke-linecap="round" stroke-linejoin="round" />
<polyline points="25.3903,68.0127 23.9172,39.2447 27.739,30.7568 37.9963,45.1079 27.8068,25.4897 41.4908,57.6783 54.1724,35.0457 52.3002,50.8189 24.8756,65.1961 36.1193,48.6127 28.2395,62.915 36.2184,38.827 27.3663,36.6079 42.9024,28.3818 33.9993,40.4211 37.682,38.5977 33.9993,40.4211 43.3088,57.5348 53.3997,28.7792 45.1077,66.5645 50.0395,28.7465 53.5102,49.4488 31.8721,50.994 50.8039,35.2619 35.9347,44.8125 50.8039,35.2619 53.5102,49.4488 27.0051,55.7301 53.5102,49.4488 41.8231,61.719 50.5011,46.1635 47.4323,32.8978 52.653,28.3372 27.739,30.7568 34.5768,34.8313 25.7623,46.704 35.9347,44.8125 24.8756,65.1961 31.9092,39.8813 53.1512,26.1951 35.0572,53.6018 53.3997,28.7792 42.4675,48.5748 24.8756,65.1961 27.3663,36.6079 24.8756,65.1961 42.4675,48.5748 53.3997,28.7792 35.0572,53.6018 53.1512,26.1951 31.9092,39.8813 24.8756,65.1961 35.9347,44.8125 25.7623,46.704 34.5768,34.8313 27.739,30.7568 52.653,28.3372 47.4323,32.8978 50.5011,46.1635 41.8231,61.719 53.5102,49.4488 27.0051,55.7301 53.5102,49.4488 50.8039,35.2619 35.9347,44.8125 50.8039,35.2619 31.8721,50.994 53.5102,49.4488 50.0395,28.7465 45.1077,66.5645 53.3997,28.7792 43.3088,57.5348 33.9993,40.4211 37.682,38.5977 33.9993,40.4211 42.9024,28.3818 27.3663,36.6079 36.2184,38.827 28.2395,62.915 36.1193,48.6127 24.8756,65.1961 52.3002,50.8189 54.1724,35.0457 41.4908,57.6783 27.8068,25.4897 37.9963,45.1079 27.739,30.7568 23.9172,39.2447 25.3903,68.0127" fill="none" stroke="rgb(195,213,229)" stroke-width="3.80668" stroke-linecap="round" stroke-linejoin="round" />
<polyline points="51.3955,70.0096 26.2209,42.7327 37.682,38.5977 25.3903,68.0127 33.9993,40.4211 52.2102,49.9061 29.8475,38.4342 47.6209,34.6648 25.3903,68.0127 34.5768,34.8313 50.8039,35.2619 23.7646,61.2579 50.3376,27.2318 50.1106,40.6409 40.4546,48.4947 43.1964,39.4247 23.9172,39.2447 37.3552,23.8975 33.9993,40.4211 34.5768,34.8313 33.9993,40.4211 37.3552,23.8975 23.9172,39.2447 43.1964,39.4247 40.4546,48.4947 50.1106,40.6409 50.3376,27.2318 23.7646,61.2579 50.8039,35.2619 34.5768,34.8313 25.3903,68.0127 47.6209,34.6648 29.8475,38.4342 52.2102,49.9061 33.9993,40.4211 25.3903,68.0127 37.682,38.5977 26.2209,42.7327 51.3955,70.0096" fill="none" stroke="rgba(168,47,252,0.656933)" stroke-width="3.80668" stroke-linecap="round" stroke-linejoin="round" />
<polyline points="29.1779,48.4083 43.1964,39.4247 24.8756,65.1961 44.5211,62.1356 29.3752,50.1785 50.1106,40.6409 41.4908,57.6783 29.3752,50.1785 41.3554,40.7081 26.2209,42.7327 47.6617,59.4853 29.8475,38.4342 35.0572,53.6018 45.1077,66.5645 50.3376,27.2318 47.6617,59.4853 23.9172,39.2447 34.7338,25.767 43.3088,57.5348 42.9024,28.3818 25.3903,68.0127 41.3554,40.7081 53.1977,68.5983 36.222,54.1485 42.6346,35.4021 34.7338,25.767 27.102,25.6043 27.8068,25.4897 25.7623,46.704 37.3552,23.8975 31.3384,69.8498 25.3903,68.0127 52.653,28.3372 53.1977,68.5983 25.3903,68.0127 52.2158,69.1803 54.0647,69.0067 53.807,39.8846 54.0647,69.0067 52.2158,69.1803 25.3903,68.0127 53.1977,68.5983 52.653,28.3372 25.3903,68.0127 31.3384,69.8498 37.3552,23.8975 25.7623,46.704 27.8068,25.4897 27.102,25.6043 34.7338,25.767 42.6346,35.4021 36.222,54.1485 53.1977,68.5983 41.3554,40.7081 25.3903,68.0127 42.9024,28.3818 43.3088,57.5348 34.7338,25.767 23.9172,39.2447 47.6617,59.4853 50.3376,27.2318 45.1077,66.5645 35.0572,53.6018 29.8475,38.4342 47.6617,59.4853 26.2209,42.7327 41.3554,40.7081 29.3752,50.1785 41.4908,57.6783 50.1106,40.6409 29.3752,50.1785 44.5211,62.1356 24.8756,65.1961 43.1964,39.4247 29.1779,48.4083" fill="none" stroke="rgba(240,209,89,0.0946878)" stroke-width="3.80668" stroke-linecap="round" stroke-linejoin="round" />
<polyline points="53.1512,26.1951 33.9946,68.2328 52.3002,50.8189 24.8756,65.1961 42.6346,35.4021 37.6047,63.3497 45.5864,61.764 32.2293,33.1287 26.5947,27.9811 32.2293,33.1287 40.0062,54.8282 50.0395,28.7465 31.9092,39.8813 28.8437,37.4555 49.8024,43.5967 42.4675,48.5748 25.7623,46.704 45.3492,68.4098 28.8437,37.4555 50.8039,35.2619 40.0062,54.8282 32.7456,25.9109 47.4903,61.7186 37.9963,45.1079 24.8756,65.1961 37.9963,45.1079 47.4903,61.7186 32.7456,25.9109 40.0062,54.8282 50.8039,35.2619 28.8437,37.4555 45.3492,68.4098 25.7623,46.704 42.4675,48.5748 49.8024,43.5967 28.8437,37.4555 31.9092,39.8813 50.0395,28.7465 40.0062,54.8282 32.2293,33.1287 26.5947,27.9811 32.2293,33.1287 45.5864,61.764 37.6047,63.3497 42.6346,35.4021 24.8756,65.1961 52.3002,50.8189 33.9946,68.2328 53.1512,26.1951" fill="none" stroke="rgba(47,252,151,0.8751)" stroke-width="3.80668" stroke-linecap="round" stroke-linejoin="round" />
<polyline points="31.8721,50.994 25.4924,47.7694 33.9993,40.4211 38.0179,39.0173 36.1193,48.6127 50.8039,35.2619 47.4323,32.8978 50.8039,35.2619 36.1193,48.6127 38.0179,39.0173 33.9993,40.4211 25.4924,47.7694 31.8721,50.994" fill="none" stroke="rgba(59,108,101,0.408206)" stroke-width="3.80668" stroke-linecap="round" stroke-linejoin="round" />
<polyline points="41.4908,57.6783 37.8188,36.281 37.0739,30.9535 52.3002,50.8189 33.3636,43.7857 23.7646,61.2579 37.8188,36.281 42.2059,64.9943 48.5255,34.9222 52.3002,50.8189 37.6047,63.3497 47.1093,34.6718 50.0395,28.7465 37.8188,36.281 37.0739,30.9535 27.739,30.7568 34.7338,25.767 29.1779,48.4083 37.682,38.5977 28.8437,37.4555 29.3752,50.1785 31.3384,69.8498 44.15,49.2954 42.9024,28.3818 23.7646,61.2579 50.3376,27.2318 28.8437,37.4555 52.3002,50.8189 27.0051,55.7301 44.5211,62.1356 45.3492,68.4098 28.2395,62.915 54.0647,69.0067 29.1779,48.4083 53.1512,26.1951 50.3376,27.2318 35.0572,53.6018 51.3955,70.0096 53.1512,26.1951 51.3955,70.0096 35.0572,53.6018 50.3376,27.2318 53.1512,26.1951 29.1779,48.4083 54.0647,69.0067 28.2395,62.915 45.3492,68.4098 44.5211,62.1356 27.0051,55.7301 52.3002,50.8189 28.8437,37.4555 50.3376,27.2318 23.7646,61.2579 42.9024,28.3818 44.15,49.2954 31.3384,69.8498 29.3752,50.1785 28.8437,37.4555 37.682,38.5977 29.1779,48.4083 34.7338,25.767 27.739,30.7568 37.0739,30.9535 37.8188,36.281 50.0395,28.7465 47.1093,34.6718 37.6047,63.3497 52.3002,50.8189 48.5255,34.9222 42.2059,64.9943 37.8188,36.281 23.7646,61.2579 33.3636,43.7857 52.3002,50.8189 37.0739,30.9535 37.8188,36.281 41.4908,57.6783" fill="none" stroke="rgba(159,113,113,0.695009)" stroke-width="3.80668" stroke-linecap="round" stroke-linejoin="round" />
<polyline points="27.0102,37.0694 28.258,53.4813 43.5044,43.333 33.3636,43.7857 42.6346,35.4021 36.2111,57.8161 27.1322,25.5395 36.2111,57.8161 32.2293,33.1287 51.3955,70.0096 44.15,49.2954 25.4924,47.7694 53.807,39.8846 27.0102,37.0694" fill="none" stroke="rgb(28,116,43)" stroke-width="3.80668" stroke-linecap="round" stroke-linejoin="round" />
<polyline points="31.9092,39.8813 37.6047,63.3497 53.1512,26.1951 42.4675,48.5748 42.2059,64.9943 25.3903,68.0127 42.6346,35.4021 53.1512,26.1951 37.682,38.5977 42.0127,71.2678 31.8721,50.994 44.5211,62.1356 33.3636,43.7857 37.6047,63.3497 45.5864,61.764 35.0572,53.6018 34.5768,34.8313 44.5211,62.1356 50.0395,28.7465 32.2293,33.1287 54.0647,69.0067 40.347,50.9925 37.0739,30.9535 52.2102,49.9061 34.5768,34.8313 48.5255,34.9222 42.0127,71.2678 43.3088,57.5348 48.5468,23.7527 24.5626,27.5781 28.2395,62.915 34.7338,25.767 36.2184,38.827 28.2395,62.915 43.3088,57.5348 49.8024,43.5967 47.6617,59.4853 37.6047,63.3497 29.1779,48.4083 27.3663,36.6079 27.8068,25.4897 47.6209,34.6648 47.1093,34.6718 32.7456,25.9109 42.9024,28.3818 50.1106,40.6409 33.9946,68.2328 29.8475,38.4342 27.102,25.6043 37.0739,30.9535 28.999,65.2738 23.9172,39.2447 47.6209,34.6648 48.5468,23.7527 42.4675,48.5748 28.999,65.2738 33.3636,43.7857 36.222,54.1485 39.7443,27.2183 28.999,65.2738 44.15,49.2954 50.5011,46.1635 42.0127,71.2678 54.1724,35.0457 50.1106,40.6409 24.8073,51.2396 31.9092,39.8813" fill="none" stroke="rgb(214,127,135)" stroke-width="3.80668" stroke-linecap="round" stroke-linejoin="round" />
<polyline points="50.1106,40.6409 48.5255,34.9222 45.3492,68.4098 29.3752,50.1785 53.807,39.8846 40.0062,54.8282 24.5626,27.5781 31.3384,69.8498 52.2102,49.9061 42.9024,28.3818 27.102,25.6043 52.2102,49.9061 28.999,65.2738 25.4924,47.7694 47.4903,61.7186 43.5044,43.333 47.1093,34.6718 24.8073,51.2396 27.1322,25.5395 26.5947,27.9811 27.0102,37.0694 31.8721,50.994 32.7456,25.9109 40.347,50.9925 42.9024,28.3818 42.0127,71.2678 36.1193,48.6127 27.1322,25.5395 36.222,54.1485 27.1322,25.5395 36.1193,48.6127 42.0127,71.2678 42.9024,28.3818 40.347,50.9925 32.7456,25.9109 31.8721,50.994 27.0102,37.0694 26.5947,27.9811 27.1322,25.5395 24.8073,51.2396 47.1093,34.6718 43.5044,43.333 47.4903,61.7186 25.4924,47.7694 28.999,65.2738 52.2102,49.9061 27.102,25.6043 42.9024,28.3818 52.2102,49.9061 31.3384,69.8498 24.5626,27.5781 40.0062,54.8282 53.807,39.8846 29.3752,50.1785 45.3492,68.4098 48.5255,34.9222 50.1106,40.6409" fill="none" stroke="rgb(195,213,229)" stroke-width="3.80668" stroke-linecap="round" stroke-linejoin="round" />
<polyline points="26.9595,38.2978 23.7646,61.2579 34.295,53.681 33.9993,40.4211 26.5947,27.9811 24.8756,65.1961 37.682,38.5977 52.3002,50.8189 35.9347,44.8125 27.0102,37.0694 25.3903,68.0127 28.2395,62.915 47.1093,34.6718 42.2059,64.9943 47.4903,61.7186 44.5211,62.1356 49.8024,43.5967 40.347,50.9925 41.8231,61.719 51.3955,70.0096 37.6047,63.3497 24.5626,27.5781 42.4675,48.5748 23.7527,41.0832 27.102,25.6043 45.5864,61.764 42.4675,48.5748 38.0179,39.0173 43.1964,39.4247 37.682,38.5977 33.9946,68.2328 44.15,49.2954 28.8437,37.4555 27.8068,25.4897 27.102,25.6043 31.8721,50.994 23.9172,39.2447 25.7623,46.704 52.653,28.3372 48.6762,69.042 53.3997,28.7792 26.9595,38.2978" fill="none" stroke="rgba(168,47,252,0.656933)" stroke-width="3.80668" stroke-linecap="round" stroke-linejoin="round" />
<polyline points="53.807,39.8846 28.258,53.4813 37.3552,23.8975 27.8068,25.4897 52.2102,49.9061 26.2209,42.7327 34.295,53.681 42.0127,71.2678 31.3384,69.8498 41.8231,61.719 51.3955,70.0096 32.7456,25.9109 35.0572,53.6018 47.4323,32.8978 50.1106,40.6409 37.9963,45.1079 53.1977,68.5983 25.3903,68.0127 45.3492,68.4098 37.682,38.5977 53.3997,28.7792 27.1322,25.5395 27.0102,37.0694 40.347,50.9925 45.1077,66.5645 29.1779,48.4083 27.0051,55.7301 47.6617,59.4853 50.1106,40.6409 24.5626,27.5781 52.2158,69.1803 43.3088,57.5348 47.6617,59.4853 34.5768,34.8313 25.3903,68.0127 32.7456,25.9109 35.0572,53.6018 33.9946,68.2328 54.0647,69.0067 28.8437,37.4555 42.0127,71.2678 32.7456,25.9109 48.5255,34.9222 34.7338,25.767 28.999,65.2738 47.6209,34.6648 31.8721,50.994 33.9946,68.2328 31.8721,50.994 45.5864,61.764 36.2111,57.8161 47.6617,59.4853 53.807,39.8846" fill="none" stroke="rgba(240,209,89,0.0946878)" stroke-width="3.80668" stroke-linecap="round" stroke-linejoin="round" />
<polyline points="53.1977,68.5983 43.5044,43.333 44.15,49.2954 42.4675,48.5748 28.999,65.2738 26.2209,42.7327 53.1977,68.5983 24.8756,65.1961 25.4924,47.7694 52.3002,50.8189 51.3955,70.0096 35.9347,44.8125 31.8846,37.855 50.8039,35.2619 26.9595,38.2978 27.739,30.7568 48.5468,23.7527 27.3663,36.6079 28.258,53.4813 54.1724,35.0457 42.9024,28.3818 23.7527,41.0832 36.1193,48.6127 23.7527,41.0832 42.9024,28.3818 54.1724,35.0457 28.258,53.4813 27.3663,36.6079 48.5468,23.7527 27.739,30.7568 26.9595,38.2978 50.8039,35.2619 31.8846,37.855 35.9347,44.8125 51.3955,70.0096 52.3002,50.8189 25.4924,47.7694 24.8756,65.1961 53.1977,68.5983 26.2209,42.7327 28.999,65.2738 42.4675,48.5748 44.15,49.2954 43.5044,43.333 53.1977,68.5983" fill="none" stroke="rgba(47,252,151,0.8751)" stroke-width="3.80668" stroke-linecap="round" stroke-linejoin="round" />
<polyline points="27.739,30.7568 31.8721,50.994 53.1977,68.5983 24.8073,51.2396 23.9172,39.2447 36.1193,48.6127 29.1779,48.4083 31.8846,37.855 42.0127,71.2678 27.8068,25.4897 47.1093,34.6718 52.2102,49.9061 48.6762,69.042 42.4675,48.5748 27.3663,36.6079 50.3376,27.2318 24.8073,51.2396 33.9946,68.2328 25.4924,47.7694 33.9946,68.2328 24.8073,51.2396 50.3376,27.2318 27.3663,36.6079 42.4675,48.5748 48.6762,69.042 52.2102,49.9061 47.1093,34.6718 27.8068,25.4897 42.0127,71.2678 31.8846,37.855 29.1779,48.4083 36.1193,48.6127 23.9172,39.2447 24.8073,51.2396 53.1977,68.5983 31.8721,50.994 27.739,30.7568" fill="none" stroke="rgba(59,108,101,0.408206)" stroke-width="3.80668" stroke-linecap="round" stroke-linejoin="round" />
<polyline points="26.2209,42.7327 33.9993,40.4211 32.7456,25.9109 36.2184,38.827 34.5768,34.8313 50.3376,27.2318 47.4323,32.8978 27.1322,25.5395 48.5255,34.9222 37.0739,30.9535 40.4546,48.4947 36.2184,38.827 27.0102,37.0694 48.5468,23.7527 41.3554,40.7081 36.2184,38.827 45.5864,61.764 47.1093,34.6718 24.5626,27.5781 34.5768,34.8313 52.2158,69.1803 23.7527,41.0832 34.295,53.681 42.6346,35.4021 49.8024,43.5967 36.222,54.1485 42.2059,64.9943 31.5923,26.3805 42.6346,35.4021 40.347,50.9925 25.3903,68.0127 42.4675,48.5748 27.102,25.6043 50.5011,46.1635 39.7443,27.2183 52.653,28.3372 27.0102,37.0694 27.102,25.6043 34.7338,25.767 35.0572,53.6018 50.8039,35.2619 31.8846,37.855 44.5211,62.1356 52.3002,50.8189 27.3663,36.6079 41.8231,61.719 50.5011,46.1635 52.3002,50.8189 43.5044,43.333 36.2111,57.8161 24.8756,65.1961 42.6346,35.4021 25.4924,47.7694 29.3752,50.1785 45.1077,66.5645 24.8756,65.1961 47.1093,34.6718 42.9024,28.3818 53.5102,49.4488 45.5864,61.764 53.807,39.8846 50.5011,46.1635 31.8846,37.855 42.4675,48.5748 28.999,65.2738 43.1964,39.4247 36.1193,48.6127 23.7527,41.0832 34.295,53.681 31.9092,39.8813 52.653,28.3372 27.739,30.7568 32.7456,25.9109 28.999,65.2738 48.5255,34.9222 35.9347,44.8125 35.0572,53.6018 42.2059,64.9943 45.3492,68.4098 40.0062,54.8282 26.2209,42.7327" fill="none" stroke="rgba(159,113,113,0.695009)" stroke-width="3.80668" stroke-linecap="round" stroke-linejoin="round" />
<polyline points="48.5468,23.7527 27.3663,36.6079 52.2158,69.1803 28.999,65.2738 34.295,53.681 53.1977,68.5983 52.2158,69.1803 53.3997,28.7792 36.2111,57.8161 53.5102,49.4488 23.7527,41.0832 29.8475,38.4342 42.6346,35.4021 50.0395,28.7465 31.5923,26.3805 50.0395,28.7465 23.9172,39.2447 26.2209,42.7327 45.5864,61.764 24.5626,27.5781 54.1724,35.0457 37.0739,30.9535 44.5211,62.1356 25.3903,68.0127 44.5211,62.1356 37.0739,30.9535 54.1724,35.0457 24.5626,27.5781 45.5864,61.764 26.2209,42.7327 23.9172,39.2447 50.0395,28.7465 31.5923,26.3805 50.0395,28.7465 42.6346,35.4021 29.8475,38.4342 23.7527,41.0832 53.5102,49.4488 36.2111,57.8161 53.3997,28.7792 52.2158,69.1803 53.1977,68.5983 34.295,53.681 28.999,65.2738 52.2158,69.1803 27.3663,36.6079 48.5468,23.7527" fill="none" stroke="rgb(28,116,43)" stroke-width="3.80668" stroke-linecap="round" stroke-linejoin="round" />
<polyline points="29.3752,50.1785 51.3955,70.0096 39.7443,27.2183 27.1322,25.5395 33.9993,40.4211 48.6762,69.042 28.258,53.4813 51.3955,70.0096 31.9092,39.8813 54.1724,35.0457 53.1512,26.1951 37.3552,23.8975 37.682,38.5977 25.3903,68.0127 27.8068,25.4897 31.8721,50.994 50.0395,28.7465 32.7456,25.9109 26.9595,38.2978 29.8475,38.4342 42.9024,28.3818 41.8231,61.719 28.2395,62.915 31.5923,26.3805 37.0739,30.9535 23.7646,61.2579 40.347,50.9925 25.4924,47.7694 33.7822,44.1148 47.6617,59.4853 53.5102,49.4488 50.1106,40.6409 49.8024,43.5967 50.8039,35.2619 50.3376,27.2318 29.3752,50.1785 48.5255,34.9222 52.653,28.3372 40.4546,48.4947 27.8068,25.4897 28.8437,37.4555 27.8068,25.4897 48.5255,34.9222 40.4546,48.4947 25.7623,46.704 24.8756,65.1961 51.3955,70.0096 53.1512,26.1951 47.4903,61.7186 26.2209,42.7327 34.5768,34.8313 54.0647,69.0067 29.1779,48.4083 26.2209,42.7327 24.8073,51.2396 53.807,39.8846 36.1193,48.6127 25.7623,46.704 52.2158,69.1803 51.4522,62.314 40.0062,54.8282 29.3752,50.1785" fill="none" stroke="rgb(214,127,135)" stroke-width="3.80668" stroke-linecap="round" stroke-linejoin="round" />
<polyline points="31.5923,26.3805 40.0062,54.8282 45.3492,68.4098 51.4522,62.314 37.9963,45.1079 42.4675,48.5748 34.295,53.681 29.3752,50.1785 42.9024,28.3818 50.3376,27.2318 31.9092,39.8813 24.5626,27.5781 27.3663,36.6079 33.7822,44.1148 37.9963,45.1079 44.15,49.2954 42.0127,71.2678 43.1964,39.4247 40.0062,54.8282 28.8437,37.4555 52.653,28.3372 42.0127,71.2678 42.6346,35.4021 37.3552,23.8975 43.1964,39.4247 40.4546,48.4947 36.1193,48.6127 24.5626,27.5781 31.8846,37.855 38.0179,39.0173 33.9946,68.2328 49.8024,43.5967 47.4903,61.7186 27.0102,37.0694 42.6346,35.4021 26.2209,42.7327 31.8721,50.994 28.2395,62.915 52.653,28.3372 28.258,53.4813 44.15,49.2954 32.2293,33.1287 44.15,49.2954 28.258,53.4813 52.653,28.3372 28.2395,62.915 31.8721,50.994 26.2209,42.7327 42.6346,35.4021 27.0102,37.0694 47.4903,61.7186 49.8024,43.5967 33.9946,68.2328 38.0179,39.0173 31.8846,37.855 24.5626,27.5781 36.1193,48.6127 40.4546,48.4947 43.1964,39.4247 37.3552,23.8975 42.6346,35.4021 42.0127,71.2678 52.653,28.3372 28.8437,37.4555 40.0062,54.8282 43.1964,39.4247 42.0127,71.2678 44.15,49.2954 37.9963,45.1079 33.7822,44.1148 27.3663,36.6079 24.5626,27.5781 31.9092,39.8813 50.3376,27.2318 42.9024,28.3818 29.3752,50.1785 34.295,53.681 42.4675,48.5748 37.9963,45.1079 51.4522,62.314 45.3492,68.4098 40.0062,54.8282 31.5923,26.3805" fill="none" stroke="rgb(195,213,229)" stroke-width="3.80668" stroke-linecap="round" stroke-linejoin="round" />
<polyline points="37.0739,30.9535 45.5864,61.764 52.2102,49.9061 37.6047,63.3497 37.8188,36.281 36.222,54.1485 32.7456,25.9109 35.9347,44.8125 27.739,30.7568 34.5768,34.8313 36.2111,57.8161 52.2158,69.1803 54.0647,69.0067 35.9347,44.8125 33.3636,43.7857 41.8231,61.719 27.0102,37.0694 41.4908,57.6783 27.0102,37.0694 41.8231,61.719 33.3636,43.7857 35.9347,44.8125 54.0647,69.0067 52.2158,69.1803 36.2111,57.8161 34.5768,34.8313 27.739,30.7568 35.9347,44.8125 32.7456,25.9109 36.222,54.1485 37.8188,36.281 37.6047,63.3497 52.2102,49.9061 45.5864,61.764 37.0739,30.9535" fill="none" stroke="rgba(168,47,252,0.656933)" stroke-width="3.80668" stroke-linecap="round" stroke-linejoin="round" />
<polyline points="28.258,53.4813 27.1322,25.5395 29.3752,50.1785 23.7646,61.2579 23.7527,41.0832 27.8068,25.4897 29.1779,48.4083 28.258,53.4813" fill="none" stroke="rgba(240,209,89,0.0946878)" stroke-width="3.80668" stroke-linecap="round" stroke-linejoin="round" />
<polyline points="35.0572,53.6018 44.15,49.2954 48.5468,23.7527 39.7443,27.2183 37.9963,45.1079 27.3663,36.6079 28.258,53.4813 45.1077,66.5645 29.8475,38.4342 23.7646,61.2579 54.1724,35.0457 40.347,50.9925 38.0179,39.0173 37.9963,45.1079 26.5947,27.9811 36.2111,57.8161 52.2102,49.9061 51.3955,70.0096 23.7646,61.2579 31.9092,39.8813 32.7456,25.9109 40.4546,48.4947 37.3552,23.8975 35.0572,53.6018 36.2111,57.8161 47.6209,34.6648 53.1512,26.1951 27.102,25.6043 31.8846,37.855 43.1964,39.4247 23.7646,61.2579 27.102,25.6043 24.8756,65.1961 26.9595,38.2978 27.0051,55.7301 26.9595,38.2978 24.8756,65.1961 27.102,25.6043 23.7646,61.2579 43.1964,39.4247 31.8846,37.855 27.102,25.6043 53.1512,26.1951 47.6209,34.6648 36.2111,57.8161 35.0572,53.6018 37.3552,23.8975 40.4546,48.4947 32.7456,25.9109 31.9092,39.8813 23.7646,61.2579 51.3955,70.0096 52.2102,49.9061 36.2111,57.8161 26.5947,27.9811 37.9963,45.1079 38.0179,39.0173 40.347,50.9925 54.1724,35.0457 23.7646,61.2579 29.8475,38.4342 45.1077,66.5645 28.258,53.4813 27.3663,36.6079 37.9963,45.1079 39.7443,27.2183 48.5468,23.7527 44.15,49.2954 35.0572,53.6018" fill="none" stroke="rgba(47,252,151,0.8751)" stroke-width="3.80668" stroke-linecap="round" stroke-linejoin="round" />
<polyline points="37.3552,23.8975 25.4924,47.7694 31.8846,37.855 42.2059,64.9943 24.8073,51.2396 52.2102,49.9061 27.0102,37.0694 35.0572,53.6018 33.9946,68.2328 32.2293,33.1287 42.0127,71.2678 37.3552,23.8975" fill="none" stroke="rgba(59,108,101,0.408206)" stroke-width="3.80668" stroke-linecap="round" stroke-linejoin="round" />
<polyline points="42.4675,48.5748 32.2293,33.1287 47.4323,32.8978 28.2395,62.915 45.1077,66.5645 48.6762,69.042 27.739,30.7568 47.4323,32.8978 28.999,65.2738 42.6346,35.4021 41.3554,40.7081 54.0647,69.0067 29.1779,48.4083 43.3088,57.5348 23.7646,61.2579 24.8073,51.2396 36.1193,48.6127 25.4924,47.7694 23.9172,39.2447 47.4903,61.7186 37.6047,63.3497 29.8475,38.4342 42.4675,48.5748" fill="none" stroke="rgba(159,113,113,0.695009)" stroke-width="3.80668" stroke-linecap="round" stroke-linejoin="round" />
<polyline points="43.5044,43.333 28.999,65.2738 23.7646,61.2579 27.739,30.7568 42.2059,64.9943 33.9993,40.4211 36.2184,38.827 28.8437,37.4555 37.3552,23.8975 52.3002,50.8189 31.3384,69.8498 25.4924,47.7694 28.258,53.4813 43.1964,39.4247 47.4903,61.7186 50.3376,27.2318 50.8039,35.2619 27.1322,25.5395 27.102,25.6043 42.6346,35.4021 34.7338,25.767 24.5626,27.5781 47.1093,34.6718 25.7623,46.704 53.1977,68.5983 51.3955,70.0096 28.8437,37.4555 45.1077,66.5645 50.5011,46.1635 48.6762,69.042 50.1106,40.6409 41.8231,61.719 23.7527,41.0832 53.1512,26.1951 53.3997,28.7792 28.258,53.4813 33.9946,68.2328 25.3903,68.0127 31.3384,69.8498 34.7338,25.767 37.3552,23.8975 32.2293,33.1287 44.5211,62.1356 37.3552,23.8975 31.8721,50.994 45.1077,66.5645 27.8068,25.4897 25.3903,68.0127 43.5044,43.333" fill="none" stroke="rgb(28,116,43)" stroke-width="3.80668" stroke-linecap="round" stroke-linejoin="round" />
<polyline points="45.5864,61.764 52.2102,49.9061 33.9993,40.4211 37.8188,36.281 45.1077,66.5645 36.2184,38.827 29.3752,50.1785 49.8024,43.5967 48.6762,69.042 43.3088,57.5348 41.4908,57.6783 23.7527,41.0832 41.4908,57.6783 43.3088,57.5348 48.6762,69.042 49.8024,43.5967 29.3752,50.1785 36.2184,38.827 45.1077,66.5645 37.8188,36.281 33.9993,40.4211 52.2102,49.9061 45.5864,61.764" fill="none" stroke="rgb(214,127,135)" stroke-width="3.80668" stroke-linecap="round" stroke-linejoin="round" />
<polyline points="37.9963,45.1079 40.347,50.9925 41.8231,61.719 26.5947,27.9811 44.15,49.2954 43.5044,43.333 54.1724,35.0457 23.7527,41.0832 35.9347,44.8125 37.0739,30.9535 45.1077,66.5645 42.4675,48.5748 23.7527,41.0832 54.0647,69.0067 26.9595,38.2978 52.3002,50.8189 31.8846,37.855 24.8073,51.2396 43.1964,39.4247 39.7443,27.2183 53.3997,28.7792 25.4924,47.7694 48.5468,23.7527 28.2395,62.915 43.3088,57.5348 34.5768,34.8313 50.8039,35.2619 45.5864,61.764 28.8437,37.4555 33.7822,44.1148 40.0062,54.8282 24.5626,27.5781 42.6346,35.4021 31.9092,39.8813 37.9963,45.1079 51.3955,70.0096 53.3997,28.7792 49.8024,43.5967 50.3376,27.2318 51.3955,70.0096 37.8188,36.281 45.3492,68.4098 31.8721,50.994 45.3492,68.4098 37.8188,36.281 51.3955,70.0096 50.3376,27.2318 49.8024,43.5967 53.3997,28.7792 51.3955,70.0096 37.9963,45.1079 31.9092,39.8813 42.6346,35.4021 24.5626,27.5781 40.0062,54.8282 33.7822,44.1148 28.8437,37.4555 45.5864,61.764 50.8039,35.2619 34.5768,34.8313 43.3088,57.5348 28.2395,62.915 48.5468,23.7527 25.4924,47.7694 53.3997,28.7792 39.7443,27.2183 43.1964,39.4247 24.8073,51.2396 31.8846,37.855 52.3002,50.8189 26.9595,38.2978 54.0647,69.0067 23.7527,41.0832 42.4675,48.5748 45.1077,66.5645 37.0739,30.9535 35.9347,44.8125 23.7527,41.0832 54.1724,35.0457 43.5044,43.333 44.15,49.2954 26.5947,27.9811 41.8231,61.719 40.347,50.9925 37.9963,45.1079" fill="none" stroke="rgb(195,213,229)" stroke-width="3.80668" stroke-linecap="round" stroke-linejoin="round" />
<polyline points="53.1512,26.1951 45.1077,66.5645 53.3997,28.7792 35.0572,53.6018 43.1964,39.4247 42.2059,64.9943 36.222,54.1485 33.3636,43.7857 27.0102,37.0694 34.5768,34.8313 37.3552,23.8975 36.1193,48.6127 34.295,53.681 27.1322,25.5395 23.7527,41.0832 38.0179,39.0173 53.3997,28.7792 33.7822,44.1148 32.2293,33.1287 26.2209,42.7327 48.5255,34.9222 38.0179,39.0173 48.5255,34.9222 52.653,28.3372 52.3002,50.8189 37.3552,23.8975 41.3554,40.7081 45.1077,66.5645 53.1512,26.1951 35.0572,53.6018 44.15,49.2954 50.1106,40.6409 45.1077,66.5645 40.0062,54.8282 47.6209,34.6648 33.9993,40.4211 33.3636,43.7857 27.0051,55.7301 40.347,50.9925 45.5864,61.764 53.3997,28.7792 51.4522,62.314 31.3384,69.8498 35.0572,53.6018 31.8721,50.994 52.2158,69.1803 42.9024,28.3818 53.1977,68.5983 31.3384,69.8498 35.0572,53.6018 26.2209,42.7327 41.3554,40.7081 53.5102,49.4488 27.0102,37.0694 52.653,28.3372 25.7623,46.704 53.1512,26.1951" fill="none" stroke="rgba(168,47,252,0.656933)" stroke-width="3.80668" stroke-linecap="round" stroke-linejoin="round" />
<polyline points="35.0572,53.6018 47.1093,34.6718 27.0102,37.0694 24.5626,27.5781 39.7443,27.2183 43.1964,39.4247 32.7456,25.9109 52.2102,49.9061 43.1964,39.4247 26.5947,27.9811 34.5768,34.8313 31.9092,39.8813 50.8039,35.2619 51.4522,62.314 34.7338,25.767 53.1512,26.1951 44.15,49.2954 52.2158,69.1803 51.4522,62.314 23.7527,41.0832 45.1077,66.5645 53.3997,28.7792 47.6209,34.6648 54.1724,35.0457 47.6209,34.6648 27.102,25.6043 47.6617,59.4853 33.7822,44.1148 52.2102,49.9061 27.1322,25.5395 36.2184,38.827 42.0127,71.2678 27.0051,55.7301 40.4546,48.4947 25.3903,68.0127 26.5947,27.9811 35.0572,53.6018" fill="none" stroke="rgba(240,209,89,0.0946878)" stroke-width="3.80668" stroke-linecap="round" stroke-linejoin="round" />
<polyline points="31.9092,39.8813 42.6346,35.4021 28.999,65.2738 50.8039,35.2619 28.8437,37.4555 41.8231,61.719 27.8068,25.4897 23.9172,39.2447 33.3636,43.7857 29.8475,38.4342 31.8721,50.994 33.7822,44.1148 25.4924,47.7694 28.8437,37.4555 52.2102,49.9061 24.8073,51.2396 37.3552,23.8975 50.3376,27.2318 25.3903,68.0127 50.5011,46.1635 25.4924,47.7694 31.8721,50.994 36.2184,38.827 45.3492,68.4098 33.3636,43.7857 24.5626,27.5781 27.1322,25.5395 47.1093,34.6718 48.5255,34.9222 50.1106,40.6409 24.8756,65.1961 25.4924,47.7694 36.1193,48.6127 37.6047,63.3497 28.999,65.2738 37.9963,45.1079 31.5923,26.3805 44.5211,62.1356 29.8475,38.4342 33.7822,44.1148 42.6346,35.4021 28.8437,37.4555 34.5768,34.8313 26.9595,38.2978 45.1077,66.5645 48.5255,34.9222 31.8721,50.994 23.7646,61.2579 27.739,30.7568 42.9024,28.3818 51.4522,62.314 23.9172,39.2447 26.2209,42.7327 45.1077,66.5645 53.1977,68.5983 37.8188,36.281 50.1106,40.6409 23.9172,39.2447 43.3088,57.5348 42.4675,48.5748 24.5626,27.5781 27.739,30.7568 53.1977,68.5983 40.4546,48.4947 36.2111,57.8161 28.999,65.2738 36.2184,38.827 38.0179,39.0173 42.2059,64.9943 41.8231,61.719 29.3752,50.1785 36.2111,57.8161 36.222,54.1485 37.682,38.5977 31.9092,39.8813 27.8068,25.4897 28.2395,62.915 24.8756,65.1961 36.222,54.1485 37.9963,45.1079 42.2059,64.9943 33.3636,43.7857 37.8188,36.281 29.1779,48.4083 31.9092,39.8813" fill="none" stroke="rgba(47,252,151,0.8751)" stroke-width="3.80668" stroke-linecap="round" stroke-linejoin="round" />
<polyline points="51.3955,70.0096 34.5768,34.8313 29.1779,48.4083 34.5768,34.8313 51.3955,70.0096" fill="none" stroke="rgba(59,108,101,0.408206)" stroke-width="3.80668" stroke-linecap="round" stroke-linejoin="round" />
<polyline points="36.2184,38.827 36.222,54.1485 34.5768,34.8313 33.7822,44.1148 45.3492,68.4098 41.8231,61.719 33.9993,40.4211 36.2184,38.827 26.5947,27.9811 24.8756,65.1961 48.6762,69.042 45.1077,66.5645 52.2158,69.1803 39.7443,27.2183 24.5626,27.5781 23.7527,41.0832 27.1322,25.5395 43.5044,43.333 40.0062,54.8282 54.1724,35.0457 26.2209,42.7327 50.8039,35.2619 54.0647,69.0067 34.5768,34.8313 31.3384,69.8498 36.1193,48.6127 36.222,54.1485 52.2102,49.9061 24.8073,51.2396 45.3492,68.4098 28.8437,37.4555 37.9963,45.1079 31.5923,26.3805 29.8475,38.4342 51.4522,62.314 36.2184,38.827 49.8024,43.5967 31.5923,26.3805 47.4903,61.7186 50.8039,35.2619 23.9172,39.2447 54.1724,35.0457 31.3384,69.8498 53.1977,68.5983 34.5768,34.8313 42.4675,48.5748 51.3955,70.0096 37.8188,36.281 48.5255,34.9222 34.295,53.681 31.8846,37.855 42.0127,71.2678 44.15,49.2954 38.0179,39.0173 42.2059,64.9943 23.7527,41.0832 24.8756,65.1961 33.3636,43.7857 36.1193,48.6127 23.9172,39.2447 23.7646,61.2579 28.258,53.4813 23.7527,41.0832 42.0127,71.2678 36.1193,48.6127 36.2184,38.827" fill="none" stroke="rgba(159,113,113,0.695009)" stroke-width="3.80668" stroke-linecap="round" stroke-linejoin="round" />
<polyline points="26.2209,42.7327 47.6617,59.4853 37.9963,45.1079 43.3088,57.5348 37.6047,63.3497 34.7338,25.767 23.7646,61.2579 41.3554,40.7081 48.5468,23.7527 51.4522,62.314 47.4903,61.7186 23.7646,61.2579 33.9993,40.4211 35.9347,44.8125 47.4323,32.8978 24.8073,51.2396 25.7623,46.704 35.9347,44.8125 40.347,50.9925 34.295,53.681 43.1964,39.4247 28.8437,37.4555 29.8475,38.4342 33.9993,40.4211 24.8073,51.2396 24.5626,27.5781 48.5255,34.9222 31.5923,26.3805 37.9963,45.1079 48.6762,69.042 29.3752,50.1785 50.0395,28.7465 29.1779,48.4083 52.3002,50.8189 23.7646,61.2579 54.0647,69.0067 33.3636,43.7857 42.4675,48.5748 29.8475,38.4342 31.8721,50.994 43.5044,43.333 24.5626,27.5781 37.682,38.5977 42.9024,28.3818 27.8068,25.4897 25.7623,46.704 27.8068,25.4897 42.6346,35.4021 25.7623,46.704 39.7443,27.2183 47.6209,34.6648 53.3997,28.7792 52.2158,69.1803 44.5211,62.1356 37.8188,36.281 29.3752,50.1785 32.7456,25.9109 40.347,50.9925 43.1964,39.4247 34.295,53.681 34.5768,34.8313 50.8039,35.2619 52.2102,49.9061 51.3955,70.0096 52.2158,69.1803 42.2059,64.9943 50.3376,27.2318 52.3002,50.8189 28.2395,62.915 34.5768,34.8313 42.9024,28.3818 48.5255,34.9222 24.8073,51.2396 52.653,28.3372 26.5947,27.9811 50.1106,40.6409 36.222,54.1485 42.0127,71.2678 40.347,50.9925 29.1779,48.4083 35.0572,53.6018 53.5102,49.4488 36.2184,38.827 27.1322,25.5395 47.4903,61.7186 28.2395,62.915 26.2209,42.7327 33.9993,40.4211 26.5947,27.9811 26.2209,42.7327" fill="none" stroke="rgb(28,116,43)" stroke-width="3.80668" stroke-linecap="round" stroke-linejoin="round" />
<polyline points="36.1193,48.6127 32.2293,33.1287 27.739,30.7568 43.5044,43.333 42.6346,35.4021 26.2209,42.7327 36.222,54.1485 23.7646,61.2579 53.807,39.8846 50.5011,46.1635 53.1977,68.5983 35.0572,53.6018 53.5102,49.4488 43.3088,57.5348 32.2293,33.1287 51.3955,70.0096 36.2184,38.827 29.3752,50.1785 53.5102,49.4488 37.8188,36.281 29.8475,38.4342 33.9993,40.4211 27.102,25.6043 27.8068,25.4897 23.7646,61.2579 31.8846,37.855 23.7646,61.2579 27.8068,25.4897 27.102,25.6043 33.9993,40.4211 29.8475,38.4342 37.8188,36.281 53.5102,49.4488 29.3752,50.1785 36.2184,38.827 51.3955,70.0096 32.2293,33.1287 43.3088,57.5348 53.5102,49.4488 35.0572,53.6018 53.1977,68.5983 50.5011,46.1635 53.807,39.8846 23.7646,61.2579 36.222,54.1485 26.2209,42.7327 42.6346,35.4021 43.5044,43.333 27.739,30.7568 32.2293,33.1287 36.1193,48.6127" fill="none" stroke="rgb(214,127,135)" stroke-width="3.80668" stroke-linecap="round" stroke-linejoin="round" />
<polyline points="50.1106,40.6409 51.3955,70.0096 37.6047,63.3497 32.2293,33.1287 53.1512,26.1951 51.4522,62.314 33.9993,40.4211 33.3636,43.7857 38.0179,39.0173 31.5923,26.3805 40.4546,48.4947 43.5044,43.333 43.3088,57.5348 41.3554,40.7081 31.9092,39.8813 44.5211,62.1356 25.4924,47.7694 35.0572,53.6018 48.6762,69.042 37.682,38.5977 43.3088,57.5348 37.0739,30.9535 42.2059,64.9943 31.3384,69.8498 37.3552,23.8975 52.653,28.3372 50.1106,40.6409" fill="none" stroke="rgb(195,213,229)" stroke-width="3.80668" stroke-linecap="round" stroke-linejoin="round" />
<polyline points="41.3554,40.7081 48.5255,34.9222 33.3636,43.7857 33.7822,44.1148 37.8188,36.281 27.0102,37.0694 26.9595,38.2978 48.5468,23.7527 41.8231,61.719 37.9963,45.1079 37.6047,63.3497 25.7623,46.704 47.4903,61.7186 47.6209,34.6648 27.0051,55.7301 23.9172,39.2447 26.9595,38.2978 35.0572,53.6018 26.9595,38.2978 23.9172,39.2447 27.0051,55.7301 47.6209,34.6648 47.4903,61.7186 25.7623,46.704 37.6047,63.3497 37.9963,45.1079 41.8231,61.719 48.5468,23.7527 26.9595,38.2978 27.0102,37.0694 37.8188,36.281 33.7822,44.1148 33.3636,43.7857 48.5255,34.9222 41.3554,40.7081" fill="none" stroke="rgba(168,47,252,0.656933)" stroke-width="3.80668" stroke-linecap="round" stroke-linejoin="round" />
<polyline points="23.9172,39.2447 38.0179,39.0173 42.4675,48.5748 43.1964,39.4247 23.9172,39.2447 24.8073,51.2396 50.0395,28.7465 25.3903,68.0127 24.5626,27.5781 43.1964,39.4247 51.3955,70.0096 35.9347,44.8125 33.9946,68.2328 36.2184,38.827 51.4522,62.314 54.0647,69.0067 52.2158,69.1803 50.1106,40.6409 31.9092,39.8813 25.7623,46.704 47.4903,61.7186 50.3376,27.2318 54.0647,69.0067 53.807,39.8846 42.9024,28.3818 28.8437,37.4555 23.9172,39.2447 25.3903,68.0127 33.3636,43.7857 52.653,28.3372 31.3384,69.8498 24.5626,27.5781 33.7822,44.1148 42.2059,64.9943 26.2209,42.7327 34.7338,25.767 32.2293,33.1287 27.0102,37.0694 43.5044,43.333 47.6617,59.4853 34.5768,34.8313 47.4903,61.7186 37.9963,45.1079 53.1977,68.5983 29.1779,48.4083 34.5768,34.8313 53.807,39.8846 47.1093,34.6718 37.3552,23.8975 40.4546,48.4947 47.6209,34.6648 31.8721,50.994 52.3002,50.8189 54.0647,69.0067 23.9172,39.2447" fill="none" stroke="rgba(240,209,89,0.0946878)" stroke-width="3.80668" stroke-linecap="round" stroke-linejoin="round" />
<polyline points="23.9172,39.2447 40.347,50.9925 45.1077,66.5645 44.15,49.2954 37.3552,23.8975 42.2059,64.9943 53.807,39.8846 50.8039,35.2619 33.3636,43.7857 45.5864,61.764 28.258,53.4813 42.6346,35.4021 52.653,28.3372 47.6209,34.6648 29.3752,50.1785 24.8073,51.2396 52.3002,50.8189 37.8188,36.281 54.0647,69.0067 53.1512,26.1951 50.5011,46.1635 54.0647,69.0067 26.5947,27.9811 25.7623,46.704 41.8231,61.719 39.7443,27.2183 53.1512,26.1951 54.1724,35.0457 36.222,54.1485 31.8721,50.994 52.653,28.3372 27.1322,25.5395 42.6346,35.4021 37.0739,30.9535 52.2158,69.1803 42.6346,35.4021 37.682,38.5977 33.9993,40.4211 26.5947,27.9811 33.9946,68.2328 50.8039,35.2619 50.1106,40.6409 31.9092,39.8813 43.5044,43.333 45.3492,68.4098 34.5768,34.8313 29.3752,50.1785 42.6346,35.4021 33.3636,43.7857 53.807,39.8846 28.8437,37.4555 50.8039,35.2619 40.4546,48.4947 26.5947,27.9811 23.7527,41.0832 52.2102,49.9061 24.5626,27.5781 27.1322,25.5395 37.3552,23.8975 44.5211,62.1356 50.0395,28.7465 52.653,28.3372 43.1964,39.4247 27.3663,36.6079 37.8188,36.281 53.5102,49.4488 42.9024,28.3818 27.0102,37.0694 47.4903,61.7186 35.0572,53.6018 37.0739,30.9535 48.6762,69.042 40.0062,54.8282 26.5947,27.9811 23.9172,39.2447 47.1093,34.6718 25.3903,68.0127 39.7443,27.2183 37.682,38.5977 23.9172,39.2447" fill="none" stroke="rgba(47,252,151,0.8751)" stroke-width="3.80668" stroke-linecap="round" stroke-linejoin="round" />
<polyline points="31.8721,50.994 40.4546,48.4947 52.3002,50.8189 43.5044,43.333 47.6617,59.4853 42.6346,35.4021 33.7822,44.1148 34.295,53.681 45.1077,66.5645 35.9347,44.8125 31.9092,39.8813 37.8188,36.281 52.653,28.3372 47.4323,32.8978 27.102,25.6043 27.3663,36.6079 23.9172,39.2447 27.8068,25.4897 38.0179,39.0173 48.5468,23.7527 45.1077,66.5645 36.1193,48.6127 45.3492,68.4098 31.8721,50.994 37.3552,23.8975 23.7646,61.2579 25.4924,47.7694 44.5211,62.1356 47.4903,61.7186 42.2059,64.9943 45.3492,68.4098 28.258,53.4813 24.8073,51.2396 37.0739,30.9535 29.8475,38.4342 44.5211,62.1356 48.5468,23.7527 25.4924,47.7694 42.4675,48.5748 37.0739,30.9535 31.8846,37.855 29.3752,50.1785 24.8073,51.2396 31.8721,50.994" fill="none" stroke="rgba(59,108,101,0.408206)" stroke-width="3.80668" stroke-linecap="round" stroke-linejoin="round" />
<polyline points="48.5255,34.9222 47.6209,34.6648 42.6346,35.4021 42.2059,64.9943 48.5468,23.7527 37.0739,30.9535 53.3997,28.7792 27.3663,36.6079 42.0127,71.2678 24.5626,27.5781 43.1964,39.4247 39.7443,27.2183 25.4924,47.7694 25.7623,46.704 33.3636,43.7857 48.5255,34.9222" fill="none" stroke="rgba(159,113,113,0.695009)" stroke-width="3.80668" stroke-linecap="round" stroke-linejoin="round" />
<polyline points="27.1322,25.5395 41.8231,61.719 25.3903,68.0127 34.295,53.681 33.9946,68.2328 52.653,28.3372 53.3997,28.7792 29.8475,38.4342 28.2395,62.915 43.3088,57.5348 27.8068,25.4897 54.1724,35.0457 52.3002,50.8189 32.2293,33.1287 37.3552,23.8975 40.4546,48.4947 53.1512,26.1951 42.2059,64.9943 43.5044,43.333 25.3903,68.0127 27.0051,55.7301 40.4546,48.4947 52.2102,49.9061 37.6047,63.3497 42.4675,48.5748 37.682,38.5977 41.4908,57.6783 48.6762,69.042 43.1964,39.4247 50.5011,46.1635 24.8756,65.1961 47.6209,34.6648 48.6762,69.042 43.1964,39.4247 42.6346,35.4021 45.3492,68.4098 47.1093,34.6718 50.0395,28.7465 50.3376,27.2318 42.6346,35.4021 34.5768,34.8313 44.15,49.2954 37.0739,30.9535 44.15,49.2954 34.5768,34.8313 42.6346,35.4021 50.3376,27.2318 50.0395,28.7465 47.1093,34.6718 45.3492,68.4098 42.6346,35.4021 43.1964,39.4247 48.6762,69.042 47.6209,34.6648 24.8756,65.1961 50.5011,46.1635 43.1964,39.4247 48.6762,69.042 41.4908,57.6783 37.682,38.5977 42.4675,48.5748 37.6047,63.3497 52.2102,49.9061 40.4546,48.4947 27.0051,55.7301 25.3903,68.0127 43.5044,43.333 42.2059,64.9943 53.1512,26.1951 40.4546,48.4947 37.3552,23.8975 32.2293,33.1287 52.3002,50.8189 54.1724,35.0457 27.8068,25.4897 43.3088,57.5348 28.2395,62.915 29.8475,38.4342 53.3997,28.7792 52.653,28.3372 33.9946,68.2328 34.295,53.681 25.3903,68.0127 41.8231,61.719 27.1322,25.5395" fill="none" stroke="rgb(28,116,43)" stroke-width="3.80668" stroke-linecap="round" stroke-linejoin="round" />
<polyline points="48.6762,69.042 50.8039,35.2619 27.8068,25.4897 53.1512,26.1951 47.6209,34.6648 42.6346,35.4021 28.2395,62.915 28.8437,37.4555 50.1106,40.6409 40.0062,54.8282 24.5626,27.5781 52.3002,50.8189 37.9963,45.1079 50.1106,40.6409 23.7527,41.0832 29.1779,48.4083 42.9024,28.3818 29.1779,48.4083 23.7527,41.0832 50.1106,40.6409 37.9963,45.1079 52.3002,50.8189 24.5626,27.5781 40.0062,54.8282 50.1106,40.6409 28.8437,37.4555 28.2395,62.915 42.6346,35.4021 47.6209,34.6648 53.1512,26.1951 27.8068,25.4897 50.8039,35.2619 48.6762,69.042" fill="none" stroke="rgb(214,127,135)" stroke-width="3.80668" stroke-linecap="round" stroke-linejoin="round" />
<polyline points="25.3903,68.0127 48.5468,23.7527 51.4522,62.314 47.4903,61.7186 27.0102,37.0694 53.5102,49.4488 27.3663,36.6079 40.347,50.9925 31.9092,39.8813 28.258,53.4813 23.7527,41.0832 52.2102,49.9061 49.8024,43.5967 37.9963,45.1079 26.2209,42.7327 40.4546,48.4947 23.7646,61.2579 47.1093,34.6718 36.1193,48.6127 26.9595,38.2978 48.5468,23.7527 41.4908,57.6783 44.15,49.2954 27.3663,36.6079 43.3088,57.5348 36.1193,48.6127 37.0739,30.9535 26.5947,27.9811 50.0395,28.7465 43.5044,43.333 42.9024,28.3818 53.1977,68.5983 27.739,30.7568 26.9595,38.2978 33.7822,44.1148 26.9595,38.2978 49.8024,43.5967 33.9993,40.4211 36.2184,38.827 42.2059,64.9943 27.8068,25.4897 50.3376,27.2318 50.1106,40.6409 25.3903,68.0127" fill="none" stroke="rgb(195,213,229)" stroke-width="3.80668" stroke-linecap="round" stroke-linejoin="round" />
<polyline points="27.0102,37.0694 47.4903,61.7186 40.4546,48.4947 52.2158,69.1803 51.3955,70.0096 38.0179,39.0173 26.2209,42.7327 31.3384,69.8498 25.7623,46.704 35.9347,44.8125 40.4546,48.4947 35.9347,44.8125 25.7623,46.704 31.3384,69.8498 26.2209,42.7327 38.0179,39.0173 51.3955,70.0096 52.2158,69.1803 40.4546,48.4947 47.4903,61.7186 27.0102,37.0694" fill="none" stroke="rgba(168,47,252,0.656933)" stroke-width="3.80668" stroke-linecap="round" stroke-linejoin="round" />
<polyline points="44.5211,62.1356 43.1964,39.4247 50.5011,46.1635 23.7646,61.2579 26.5947,27.9811 36.2184,38.827 31.8721,50.994 32.7456,25.9109 48.5468,23.7527 50.8039,35.2619 40.4546,48.4947 23.7527,41.0832 23.9172,39.2447 33.9993,40.4211 25.3903,68.0127 49.8024,43.5967 28.999,65.2738 34.5768,34.8313 40.0062,54.8282 41.4908,57.6783 53.807,39.8846 36.2111,57.8161 36.222,54.1485 23.7527,41.0832 37.682,38.5977 31.8846,37.855 44.5211,62.1356 27.3663,36.6079 26.5947,27.9811 36.1193,48.6127 29.8475,38.4342 48.5255,34.9222 45.5864,61.764 44.5211,62.1356 25.4924,47.7694 32.2293,33.1287 31.8721,50.994 52.2102,49.9061 50.3376,27.2318 44.15,49.2954 31.8721,50.994 36.222,54.1485 24.8756,65.1961 47.4903,61.7186 53.5102,49.4488 47.6209,34.6648 47.4903,61.7186 33.7822,44.1148 50.0395,28.7465 54.0647,69.0067 43.5044,43.333 28.999,65.2738 37.682,38.5977 28.8437,37.4555 26.9595,38.2978 25.7623,46.704 51.4522,62.314 45.1077,66.5645 47.4323,32.8978 34.295,53.681 34.7338,25.767 29.3752,50.1785 31.3384,69.8498 43.1964,39.4247 27.3663,36.6079 39.7443,27.2183 36.1193,48.6127 42.2059,64.9943 29.1779,48.4083 48.6762,69.042 47.1093,34.6718 27.0051,55.7301 51.4522,62.314 24.8756,65.1961 44.15,49.2954 49.8024,43.5967 35.9347,44.8125 31.9092,39.8813 52.653,28.3372 31.3384,69.8498 27.3663,36.6079 53.807,39.8846 27.1322,25.5395 29.8475,38.4342 23.9172,39.2447 31.3384,69.8498 26.9595,38.2978 43.3088,57.5348 23.7646,61.2579 54.0647,69.0067 33.9993,40.4211 42.6346,35.4021 34.7338,25.767 53.807,39.8846 52.3002,50.8189 45.1077,66.5645 40.0062,54.8282 44.5211,62.1356" fill="none" stroke="rgba(240,209,89,0.0946878)" stroke-width="3.80668" stroke-linecap="round" stroke-linejoin="round" />
<polyline points="29.8475,38.4342 53.807,39.8846 34.7338,25.767 34.5768,34.8313 48.5468,23.7527 43.1964,39.4247 34.5768,34.8313 51.3955,70.0096 23.7646,61.2579 45.1077,66.5645 47.1093,34.6718 31.8721,50.994 53.807,39.8846 31.8721,50.994 29.8475,38.4342 34.295,53.681 23.7646,61.2579 47.4323,32.8978 23.9172,39.2447 28.8437,37.4555 43.5044,43.333 37.8188,36.281 27.8068,25.4897 53.1977,68.5983 35.9347,44.8125 31.3384,69.8498 53.5102,49.4488 48.5468,23.7527 47.6209,34.6648 41.3554,40.7081 50.0395,28.7465 41.4908,57.6783 29.3752,50.1785 47.6209,34.6648 42.0127,71.2678 45.1077,66.5645 53.1512,26.1951 47.4323,32.8978 45.5864,61.764 37.8188,36.281 47.4903,61.7186 45.3492,68.4098 28.999,65.2738 38.0179,39.0173 29.8475,38.4342" fill="none" stroke="rgba(47,252,151,0.8751)" stroke-width="3.80668" stroke-linecap="round" stroke-linejoin="round" />
<polyline points="31.9092,39.8813 28.999,65.2738 29.1779,48.4083 27.0051,55.7301 33.7822,44.1148 25.3903,68.0127 26.5947,27.9811 45.5864,61.764 52.2102,49.9061 53.3997,28.7792 25.4924,47.7694 29.3752,50.1785 31.9092,39.8813 37.6047,63.3497 28.2395,62.915 43.5044,43.333 43.1964,39.4247 29.8475,38.4342 32.7456,25.9109 45.1077,66.5645 31.9092,39.8813 43.3088,57.5348 36.2111,57.8161 23.9172,39.2447 47.6209,34.6648 54.0647,69.0067 50.8039,35.2619 42.6346,35.4021 35.9347,44.8125 42.0127,71.2678 35.9347,44.8125 42.6346,35.4021 50.8039,35.2619 54.0647,69.0067 47.6209,34.6648 23.9172,39.2447 36.2111,57.8161 43.3088,57.5348 31.9092,39.8813 45.1077,66.5645 32.7456,25.9109 29.8475,38.4342 43.1964,39.4247 43.5044,43.333 28.2395,62.915 37.6047,63.3497 31.9092,39.8813 29.3752,50.1785 25.4924,47.7694 53.3997,28.7792 52.2102,49.9061 45.5864,61.764 26.5947,27.9811 25.3903,68.0127 33.7822,44.1148 27.0051,55.7301 29.1779,48.4083 28.999,65.2738 31.9092,39.8813" fill="none" stroke="rgba(59,108,101,0.408206)" stroke-width="3.80668" stroke-linecap="round" stroke-linejoin="round" />
<polyline points="47.4323,32.8978 43.3088,57.5348 29.3752,50.1785 54.0647,69.0067 31.9092,39.8813 29.1779,48.4083 52.3002,50.8189 52.2158,69.1803 37.6047,63.3497 31.8846,37.855 28.2395,62.915 44.15,49.2954 27.102,25.6043 31.8721,50.994 48.5255,34.9222 25.3903,68.0127 25.7623,46.704 42.9024,28.3818 44.5211,62.1356 27.8068,25.4897 53.1977,68.5983 31.5923,26.3805 42.4675,48.5748 27.3663,36.6079 23.7646,61.2579 27.1322,25.5395 37.3552,23.8975 28.8437,37.4555 37.3552,23.8975 27.1322,25.5395 23.7646,61.2579 27.3663,36.6079 42.4675,48.5748 31.5923,26.3805 53.1977,68.5983 27.8068,25.4897 44.5211,62.1356 42.9024,28.3818 25.7623,46.704 25.3903,68.0127 48.5255,34.9222 31.8721,50.994 27.102,25.6043 44.15,49.2954 28.2395,62.915 31.8846,37.855 37.6047,63.3497 52.2158,69.1803 52.3002,50.8189 29.1779,48.4083 31.9092,39.8813 54.0647,69.0067 29.3752,50.1785 43.3088,57.5348 47.4323,32.8978" fill="none" stroke="rgba(159,113,113,0.695009)" stroke-width="3.80668" stroke-linecap="round" stroke-linejoin="round" />
<polyline points="41.4908,57.6783 53.1512,26.1951 52.3002,50.8189 23.7527,41.0832 47.1093,34.6718 34.7338,25.767 37.6047,63.3497 45.5864,61.764 25.3903,68.0127 35.9347,44.8125 43.5044,43.333 27.0051,55.7301 52.2158,69.1803 39.7443,27.2183 43.1964,39.4247 34.7338,25.767 42.2059,64.9943 37.0739,30.9535 42.2059,64.9943 34.7338,25.767 43.1964,39.4247 39.7443,27.2183 52.2158,69.1803 27.0051,55.7301 43.5044,43.333 35.9347,44.8125 25.3903,68.0127 45.5864,61.764 37.6047,63.3497 34.7338,25.767 47.1093,34.6718 23.7527,41.0832 52.3002,50.8189 53.1512,26.1951 41.4908,57.6783" fill="none" stroke="rgb(28,116,43)" stroke-width="3.80668" stroke-linecap="round" stroke-linejoin="round" />
<polyline points="41.4908,57.6783 45.5864,61.764 33.3636,43.7857 23.7646,61.2579 44.5211,62.1356 27.8068,25.4897 35.0572,53.6018 25.3903,68.0127 28.258,53.4813 27.0051,55.7301 44.15,49.2954 47.4903,61.7186 31.8721,50.994 36.2184,38.827 51.4522,62.314 29.3752,50.1785 37.9963,45.1079 26.2209,42.7327 34.295,53.681 47.1093,34.6718 51.3955,70.0096 44.15,49.2954 53.3997,28.7792 31.3384,69.8498 28.258,53.4813 45.5864,61.764 32.2293,33.1287 47.6617,59.4853 50.5011,46.1635 54.1724,35.0457 53.1977,68.5983 29.3752,50.1785 37.682,38.5977 44.15,49.2954 36.2111,57.8161 27.0051,55.7301 41.4908,57.6783 47.4903,61.7186 41.4908,57.6783" fill="none" stroke="rgb(214,127,135)" stroke-width="3.80668" stroke-linecap="round" stroke-linejoin="round" />
<polyline points="52.2102,49.9061 42.6346,35.4021 34.7338,25.767 37.682,38.5977 36.222,54.1485 43.5044,43.333 28.999,65.2738 53.3997,28.7792 36.2111,57.8161 33.3636,43.7857 31.9092,39.8813 39.7443,27.2183 31.3384,69.8498 27.739,30.7568 28.999,65.2738 50.1106,40.6409 26.5947,27.9811 40.4546,48.4947 33.7822,44.1148 40.4546,48.4947 26.5947,27.9811 50.1106,40.6409 28.999,65.2738 27.739,30.7568 31.3384,69.8498 39.7443,27.2183 31.9092,39.8813 33.3636,43.7857 36.2111,57.8161 53.3997,28.7792 28.999,65.2738 43.5044,43.333 36.222,54.1485 37.682,38.5977 34.7338,25.767 42.6346,35.4021 52.2102,49.9061" fill="none" stroke="rgb(195,213,229)" stroke-width="3.80668" stroke-linecap="round" stroke-linejoin="round" />
<polyline points="25.3903,68.0127 23.7527,41.0832 27.3663,36.6079 23.7527,41.0832 25.3903,68.0127" fill="none" stroke="rgba(168,47,252,0.656933)" stroke-width="3.80668" stroke-linecap="round" stroke-linejoin="round" />
<polyline points="27.739,30.7568 27.102,25.6043 51.3955,70.0096 33.9946,68.2328 24.8756,65.1961 26.2209,42.7327 28.2395,62.915 37.682,38.5977 47.6209,34.6648 37.682,38.5977 28.2395,62.915 26.2209,42.7327 24.8756,65.1961 33.9946,68.2328 51.3955,70.0096 27.102,25.6043 27.739,30.7568" fill="none" stroke="rgba(240,209,89,0.0946878)" stroke-width="3.80668" stroke-linecap="round" stroke-linejoin="round" />
<polyline points="41.3554,40.7081 29.8475,38.4342 47.4903,61.7186 49.8024,43.5967 47.4903,61.7186 42.0127,71.2678 31.8846,37.855 47.4323,32.8978 52.2102,49.9061 53.1977,68.5983 23.9172,39.2447 37.8188,36.281 26.2209,42.7327 37.8188,36.281 24.8073,51.2396 37.9963,45.1079 35.0572,53.6018 28.8437,37.4555 31.9092,39.8813 24.8756,65.1961 41.3554,40.7081 50.8039,35.2619 47.1093,34.6718 23.9172,39.2447 50.5011,46.1635 51.3955,70.0096 25.3903,68.0127 53.1512,26.1951 52.2102,49.9061 38.0179,39.0173 33.3636,43.7857 36.1193,48.6127 50.0395,28.7465 26.2209,42.7327 26.5947,27.9811 41.8231,61.719 41.3554,40.7081 54.1724,35.0457 27.102,25.6043 43.5044,43.333 28.8437,37.4555 26.9595,38.2978 48.6762,69.042 54.1724,35.0457 33.9946,68.2328 48.5255,34.9222 35.9347,44.8125 40.347,50.9925 52.2102,49.9061 44.5211,62.1356 37.682,38.5977 41.8231,61.719 31.8846,37.855 31.9092,39.8813 36.2184,38.827 26.5947,27.9811 47.1093,34.6718 23.9172,39.2447 40.0062,54.8282 24.5626,27.5781 25.7623,46.704 23.7527,41.0832 52.2102,49.9061 24.8756,65.1961 43.3088,57.5348 50.5011,46.1635 28.8437,37.4555 48.6762,69.042 41.4908,57.6783 33.9993,40.4211 36.222,54.1485 52.2158,69.1803 37.6047,63.3497 37.9963,45.1079 38.0179,39.0173 37.0739,30.9535 24.8756,65.1961 29.1779,48.4083 41.3554,40.7081" fill="none" stroke="rgba(47,252,151,0.8751)" stroke-width="3.80668" stroke-linecap="round" stroke-linejoin="round" />
<polyline points="43.5044,43.333 28.999,65.2738 36.2111,57.8161 45.1077,66.5645 50.0395,28.7465 36.1193,48.6127 37.6047,63.3497 24.5626,27.5781 36.2184,38.827 52.3002,50.8189 41.4908,57.6783 42.2059,64.9943 32.2293,33.1287 42.2059,64.9943 41.4908,57.6783 52.3002,50.8189 36.2184,38.827 24.5626,27.5781 37.6047,63.3497 36.1193,48.6127 50.0395,28.7465 45.1077,66.5645 36.2111,57.8161 28.999,65.2738 43.5044,43.333" fill="none" stroke="rgba(59,108,101,0.408206)" stroke-width="3.80668" stroke-linecap="round" stroke-linejoin="round" />
<polyline points="50.3376,27.2318 42.4675,48.5748 28.2395,62.915 47.4323,32.8978 29.8475,38.4342 50.5011,46.1635 47.4903,61.7186 27.8068,25.4897 44.5211,62.1356 31.3384,69.8498 40.347,50.9925 49.8024,43.5967 36.222,54.1485 50.8039,35.2619 48.6762,69.042 27.1322,25.5395 28.2395,62.915 52.653,28.3372 25.3903,68.0127 25.4924,47.7694 26.5947,27.9811 36.2111,57.8161 48.5468,23.7527 34.7338,25.767 23.7527,41.0832 37.3552,23.8975 47.6209,34.6648 31.9092,39.8813 47.4323,32.8978 42.4675,48.5748 47.6617,59.4853 26.2209,42.7327 47.4323,32.8978 42.9024,28.3818 35.0572,53.6018 24.5626,27.5781 31.8846,37.855 36.2111,57.8161 47.1093,34.6718 25.3903,68.0127 31.9092,39.8813 40.0062,54.8282 44.5211,62.1356 40.0062,54.8282 31.9092,39.8813 25.3903,68.0127 47.1093,34.6718 36.2111,57.8161 31.8846,37.855 24.5626,27.5781 35.0572,53.6018 42.9024,28.3818 47.4323,32.8978 26.2209,42.7327 47.6617,59.4853 42.4675,48.5748 47.4323,32.8978 31.9092,39.8813 47.6209,34.6648 37.3552,23.8975 23.7527,41.0832 34.7338,25.767 48.5468,23.7527 36.2111,57.8161 26.5947,27.9811 25.4924,47.7694 25.3903,68.0127 52.653,28.3372 28.2395,62.915 27.1322,25.5395 48.6762,69.042 50.8039,35.2619 36.222,54.1485 49.8024,43.5967 40.347,50.9925 31.3384,69.8498 44.5211,62.1356 27.8068,25.4897 47.4903,61.7186 50.5011,46.1635 29.8475,38.4342 47.4323,32.8978 28.2395,62.915 42.4675,48.5748 50.3376,27.2318" fill="none" stroke="rgba(159,113,113,0.695009)" stroke-width="3.80668" stroke-linecap="round" stroke-linejoin="round" />
<polyline points="41.3554,40.7081 53.5102,49.4488 35.9347,44.8125 54.0647,69.0067 53.807,39.8846 53.1512,26.1951 48.5468,23.7527 39.7443,27.2183 54.1724,35.0457 34.5768,34.8313 41.3554,40.7081 43.3088,57.5348 45.1077,66.5645 43.1964,39.4247 24.8756,65.1961 25.3903,68.0127 52.2102,49.9061 37.0739,30.9535 50.8039,35.2619 45.5864,61.764 33.3636,43.7857 27.0102,37.0694 53.807,39.8846 32.7456,25.9109 26.9595,38.2978 34.295,53.681 24.8756,65.1961 47.1093,34.6718 48.5255,34.9222 45.1077,66.5645 33.9993,40.4211 50.5011,46.1635 49.8024,43.5967 45.3492,68.4098 31.8721,50.994 26.5947,27.9811 25.3903,68.0127 43.3088,57.5348 41.4908,57.6783 38.0179,39.0173 23.7646,61.2579 37.0739,30.9535 45.1077,66.5645 39.7443,27.2183 41.3554,40.7081 33.3636,43.7857 41.3554,40.7081 39.7443,27.2183 45.1077,66.5645 37.0739,30.9535 23.7646,61.2579 38.0179,39.0173 41.4908,57.6783 43.3088,57.5348 25.3903,68.0127 26.5947,27.9811 31.8721,50.994 45.3492,68.4098 49.8024,43.5967 50.5011,46.1635 33.9993,40.4211 45.1077,66.5645 48.5255,34.9222 47.1093,34.6718 24.8756,65.1961 34.295,53.681 26.9595,38.2978 32.7456,25.9109 53.807,39.8846 27.0102,37.0694 33.3636,43.7857 45.5864,61.764 50.8039,35.2619 37.0739,30.9535 52.2102,49.9061 25.3903,68.0127 24.8756,65.1961 43.1964,39.4247 45.1077,66.5645 43.3088,57.5348 41.3554,40.7081 34.5768,34.8313 54.1724,35.0457 39.7443,27.2183 48.5468,23.7527 53.1512,26.1951 53.807,39.8846 54.0647,69.0067 35.9347,44.8125 53.5102,49.4488 41.3554,40.7081" fill="none" stroke="rgb(28,116,43)" stroke-width="3.80668" stroke-linecap="round" stroke-linejoin="round" />
<polyline points="37.0739,30.9535 24.8756,65.1961 34.7338,25.767 36.2184,38.827 47.4323,32.8978 36.2111,57.8161 35.0572,53.6018 29.1779,48.4083 50.8039,35.2619 23.7527,41.0832 27.0051,55.7301 52.2102,49.9061 47.6209,34.6648 27.8068,25.4897 37.0739,30.9535 23.7646,61.2579 37.6047,63.3497 45.1077,66.5645 31.8721,50.994 45.5864,61.764 31.8721,50.994 37.6047,63.3497 47.1093,34.6718 26.9595,38.2978 33.9946,68.2328 43.5044,43.333 47.4903,61.7186 34.7338,25.767 29.3752,50.1785 44.5211,62.1356 42.0127,71.2678 50.0395,28.7465 40.4546,48.4947 49.8024,43.5967 41.8231,61.719 34.7338,25.767 33.7822,44.1148 42.0127,71.2678 42.9024,28.3818 24.8756,65.1961 42.4675,48.5748 37.0739,30.9535 40.4546,48.4947 23.9172,39.2447 27.102,25.6043 31.9092,39.8813 52.2102,49.9061 48.5468,23.7527 25.4924,47.7694 26.5947,27.9811 52.2158,69.1803 42.4675,48.5748 31.8846,37.855 33.9993,40.4211 41.4908,57.6783 43.1964,39.4247 40.4546,48.4947 33.9993,40.4211 53.5102,49.4488 45.5864,61.764 32.2293,33.1287 26.5947,27.9811 24.8756,65.1961 28.258,53.4813 25.4924,47.7694 44.5211,62.1356 23.7646,61.2579 28.8437,37.4555 32.7456,25.9109 29.1779,48.4083 37.3552,23.8975 37.6047,63.3497 37.8188,36.281 36.1193,48.6127 33.7822,44.1148 23.9172,39.2447 43.5044,43.333 37.8188,36.281 33.3636,43.7857 37.9963,45.1079 38.0179,39.0173 37.9963,45.1079 50.5011,46.1635 26.5947,27.9811 50.0395,28.7465 50.5011,46.1635 37.0739,30.9535" fill="none" stroke="rgb(214,127,135)" stroke-width="3.80668" stroke-linecap="round" stroke-linejoin="round" />
<polyline points="28.8437,37.4555 50.0395,28.7465 27.1322,25.5395 52.653,28.3372 41.4908,57.6783 48.5468,23.7527 39.7443,27.2183 36.2111,57.8161 53.3997,28.7792 42.9024,28.3818 53.5102,49.4488 53.1977,68.5983 53.1512,26.1951 25.4924,47.7694 52.653,28.3372 38.0179,39.0173 42.0127,71.2678 23.9172,39.2447 43.5044,43.333 53.1977,68.5983 41.3554,40.7081 27.3663,36.6079 28.258,53.4813 27.0102,37.0694 42.0127,71.2678 45.5864,61.764 28.8437,37.4555 27.0102,37.0694 33.3636,43.7857 25.3903,68.0127 31.5923,26.3805 28.2395,62.915 47.1093,34.6718 47.6209,34.6648 27.102,25.6043 27.0051,55.7301 34.5768,34.8313 33.7822,44.1148 36.222,54.1485 48.5468,23.7527 24.5626,27.5781 23.9172,39.2447 53.1977,68.5983 37.0739,30.9535 31.9092,39.8813 27.102,25.6043 52.653,28.3372 37.8188,36.281 28.8437,37.4555" fill="none" stroke="rgb(195,213,229)" stroke-width="3.80668" stroke-linecap="round" stroke-linejoin="round" />
<polyline points="43.5044,43.333 29.8475,38.4342 34.295,53.681 28.258,53.4813 23.9172,39.2447 53.1512,26.1951 27.102,25.6043 31.8721,50.994 26.2209,42.7327 40.347,50.9925 32.2293,33.1287 43.3088,57.5348 52.653,28.3372 54.0647,69.0067 50.3376,27.2318 31.9092,39.8813 45.1077,66.5645 54.0647,69.0067 26.9595,38.2978 31.8721,50.994 44.5211,62.1356 42.4675,48.5748 49.8024,43.5967 36.2111,57.8161 27.0102,37.0694 53.1977,68.5983 27.739,30.7568 53.1512,26.1951 27.739,30.7568 53.1977,68.5983 27.0102,37.0694 36.2111,57.8161 49.8024,43.5967 42.4675,48.5748 44.5211,62.1356 31.8721,50.994 26.9595,38.2978 54.0647,69.0067 45.1077,66.5645 31.9092,39.8813 50.3376,27.2318 54.0647,69.0067 52.653,28.3372 43.3088,57.5348 32.2293,33.1287 40.347,50.9925 26.2209,42.7327 31.8721,50.994 27.102,25.6043 53.1512,26.1951 23.9172,39.2447 28.258,53.4813 34.295,53.681 29.8475,38.4342 43.5044,43.333" fill="none" stroke="rgba(168,47,252,0.656933)" stroke-width="3.80668" stroke-linecap="round" stroke-linejoin="round" />
<polyline points="42.4675,48.5748 43.5044,43.333 42.6346,35.4021 26.9595,38.2978 28.2395,62.915 34.5768,34.8313 40.4546,48.4947 34.295,53.681 37.682,38.5977 52.3002,50.8189 25.3903,68.0127 54.0647,69.0067 26.2209,42.7327 28.999,65.2738 43.5044,43.333 24.5626,27.5781 41.3554,40.7081 41.4908,57.6783 35.0572,53.6018 53.3997,28.7792 31.5923,26.3805 53.807,39.8846 40.4546,48.4947 32.7456,25.9109 25.4924,47.7694 24.8073,51.2396 43.5044,43.333 53.807,39.8846 42.4675,48.5748 31.3384,69.8498 43.1964,39.4247 42.4675,48.5748 36.222,54.1485 24.5626,27.5781 52.3002,50.8189 34.7338,25.767 35.0572,53.6018 31.8846,37.855 50.1106,40.6409 29.3752,50.1785 33.9993,40.4211 31.8846,37.855 33.9993,40.4211 53.5102,49.4488 31.8846,37.855 40.347,50.9925 47.6617,59.4853 37.0739,30.9535 40.347,50.9925 26.9595,38.2978 35.9347,44.8125 26.9595,38.2978 48.6762,69.042 37.8188,36.281 36.2184,38.827 52.2102,49.9061 50.5011,46.1635 31.5923,26.3805 48.5468,23.7527 29.3752,50.1785 41.4908,57.6783 51.4522,62.314 54.1724,35.0457 40.0062,54.8282 42.0127,71.2678 26.9595,38.2978 36.2111,57.8161 37.8188,36.281 52.653,28.3372 33.9946,68.2328 47.1093,34.6718 26.2209,42.7327 27.102,25.6043 35.9347,44.8125 54.0647,69.0067 23.7646,61.2579 45.3492,68.4098 41.8231,61.719 44.15,49.2954 25.3903,68.0127 33.9993,40.4211 37.9963,45.1079 27.0051,55.7301 42.4675,48.5748" fill="none" stroke="rgba(240,209,89,0.0946878)" stroke-width="3.80668" stroke-linecap="round" stroke-linejoin="round" />
<polyline points="23.7646,61.2579 34.5768,34.8313 53.3997,28.7792 28.8437,37.4555 42.0127,71.2678 31.3384,69.8498 37.8188,36.281 31.5923,26.3805 45.1077,66.5645 37.6047,63.3497 35.9347,44.8125 37.8188,36.281 32.7456,25.9109 45.3492,68.4098 47.4323,32.8978 48.6762,69.042 43.1964,39.4247 25.7623,46.704 35.9347,44.8125 23.7646,61.2579 42.0127,71.2678 50.5011,46.1635 34.7338,25.767 23.9172,39.2447 28.2395,62.915 41.4908,57.6783 53.3997,28.7792 43.1964,39.4247 25.4924,47.7694 42.9024,28.3818 24.8756,65.1961 52.3002,50.8189 27.1322,25.5395 24.5626,27.5781 49.8024,43.5967 28.2395,62.915 27.0102,37.0694 42.4675,48.5748 28.2395,62.915 36.1193,48.6127 28.258,53.4813 33.9946,68.2328 54.0647,69.0067 47.4323,32.8978 50.5011,46.1635 45.5864,61.764 45.3492,68.4098 24.8073,51.2396 50.3376,27.2318 37.6047,63.3497 54.1724,35.0457 23.9172,39.2447 32.7456,25.9109 23.7646,61.2579" fill="none" stroke="rgba(47,252,151,0.8751)" stroke-width="3.80668" stroke-linecap="round" stroke-linejoin="round" />
<polyline points="53.1977,68.5983 43.1964,39.4247 47.1093,34.6718 52.653,28.3372 47.4323,32.8978 36.222,54.1485 29.8475,38.4342 53.1977,68.5983 54.1724,35.0457 37.3552,23.8975 29.8475,38.4342 37.3552,23.8975 54.1724,35.0457 53.1977,68.5983 29.8475,38.4342 36.222,54.1485 47.4323,32.8978 52.653,28.3372 47.1093,34.6718 43.1964,39.4247 53.1977,68.5983" fill="none" stroke="rgba(59,108,101,0.408206)" stroke-width="3.80668" stroke-linecap="round" stroke-linejoin="round" />
<polyline points="41.8231,61.719 24.8073,51.2396 28.258,53.4813 26.5947,27.9811 23.9172,39.2447 37.3552,23.8975 26.2209,42.7327 25.3903,68.0127 42.9024,28.3818 33.3636,43.7857 40.4546,48.4947 42.2059,64.9943 41.8231,61.719 42.4675,48.5748 32.7456,25.9109 54.0647,69.0067 52.653,28.3372 52.3002,50.8189 27.1322,25.5395 26.9595,38.2978 29.8475,38.4342 52.2102,49.9061 27.739,30.7568 45.3492,68.4098 24.8756,65.1961 39.7443,27.2183 34.295,53.681 39.7443,27.2183 24.8756,65.1961 45.3492,68.4098 27.739,30.7568 52.2102,49.9061 29.8475,38.4342 26.9595,38.2978 27.1322,25.5395 52.3002,50.8189 52.653,28.3372 54.0647,69.0067 32.7456,25.9109 42.4675,48.5748 41.8231,61.719 42.2059,64.9943 40.4546,48.4947 33.3636,43.7857 42.9024,28.3818 25.3903,68.0127 26.2209,42.7327 37.3552,23.8975 23.9172,39.2447 26.5947,27.9811 28.258,53.4813 24.8073,51.2396 41.8231,61.719" fill="none" stroke="rgba(159,113,113,0.695009)" stroke-width="3.80668" stroke-linecap="round" stroke-linejoin="round" />
<polyline points="40.347,50.9925 41.4908,57.6783 52.2158,69.1803 43.5044,43.333 43.3088,57.5348 49.8024,43.5967 41.4908,57.6783 31.8721,50.994 51.3955,70.0096 26.5947,27.9811 27.739,30.7568 24.8073,51.2396 37.3552,23.8975 33.9946,68.2328 52.653,28.3372 47.4903,61.7186 36.222,54.1485 24.5626,27.5781 26.2209,42.7327 36.222,54.1485 26.2209,42.7327 50.1106,40.6409 31.5923,26.3805 52.3002,50.8189 50.1106,40.6409 36.222,54.1485 47.4903,61.7186 45.1077,66.5645 43.5044,43.333 41.8231,61.719 33.9993,40.4211 34.7338,25.767 43.5044,43.333 50.5011,46.1635 27.739,30.7568 40.0062,54.8282 36.1193,48.6127 47.6617,59.4853 39.7443,27.2183 23.9172,39.2447 42.2059,64.9943 37.682,38.5977 42.4675,48.5748 41.8231,61.719 25.3903,68.0127 41.8231,61.719 42.4675,48.5748 37.682,38.5977 42.2059,64.9943 23.9172,39.2447 39.7443,27.2183 47.6617,59.4853 36.1193,48.6127 40.0062,54.8282 27.739,30.7568 50.5011,46.1635 43.5044,43.333 34.7338,25.767 33.9993,40.4211 41.8231,61.719 43.5044,43.333 45.1077,66.5645 47.4903,61.7186 36.222,54.1485 50.1106,40.6409 52.3002,50.8189 31.5923,26.3805 50.1106,40.6409 26.2209,42.7327 36.222,54.1485 26.2209,42.7327 24.5626,27.5781 36.222,54.1485 47.4903,61.7186 52.653,28.3372 33.9946,68.2328 37.3552,23.8975 24.8073,51.2396 27.739,30.7568 26.5947,27.9811 51.3955,70.0096 31.8721,50.994 41.4908,57.6783 49.8024,43.5967 43.3088,57.5348 43.5044,43.333 52.2158,69.1803 41.4908,57.6783 40.347,50.9925" fill="none" stroke="rgb(28,116,43)" stroke-width="3.80668" stroke-linecap="round" stroke-linejoin="round" />
<polyline points="24.8756,65.1961 42.9024,28.3818 29.3752,50.1785 53.1512,26.1951 33.9946,68.2328 48.5255,34.9222 40.347,50.9925 34.5768,34.8313 48.6762,69.042 50.3376,27.2318 48.6762,69.042 34.5768,34.8313 40.347,50.9925 48.5255,34.9222 33.9946,68.2328 53.1512,26.1951 29.3752,50.1785 42.9024,28.3818 24.8756,65.1961" fill="none" stroke="rgb(214,127,135)" stroke-width="3.80668" stroke-linecap="round" stroke-linejoin="round" />
<polyline points="23.7527,41.0832 42.0127,71.2678 53.3997,28.7792 33.9993,40.4211 29.3752,50.1785 27.8068,25.4897 28.258,53.4813 37.6047,63.3497 37.9963,45.1079 36.222,54.1485 49.8024,43.5967 52.653,28.3372 50.1106,40.6409 45.3492,68.4098 40.347,50.9925 34.5768,34.8313 28.258,53.4813 33.7822,44.1148 23.7527,41.0832 28.2395,62.915 29.3752,50.1785 34.7338,25.767 47.6617,59.4853 45.1077,66.5645 35.0572,53.6018 41.3554,40.7081 37.0739,30.9535 50.1106,40.6409 47.6617,59.4853 41.4908,57.6783 23.7646,61.2579 53.5102,49.4488 37.8188,36.281 53.1512,26.1951 44.15,49.2954 53.1512,26.1951 48.5468,23.7527 23.7527,41.0832 37.682,38.5977 45.3492,68.4098 27.1322,25.5395 44.15,49.2954 40.0062,54.8282 31.5923,26.3805 43.5044,43.333 26.2209,42.7327 53.5102,49.4488 31.8846,37.855 41.4908,57.6783 37.8188,36.281 53.1977,68.5983 45.1077,66.5645 42.0127,71.2678 33.3636,43.7857 43.5044,43.333 36.222,54.1485 27.0051,55.7301 37.8188,36.281 51.3955,70.0096 31.9092,39.8813 33.9946,68.2328 45.3492,68.4098 51.4522,62.314 42.2059,64.9943 45.5864,61.764 51.3955,70.0096 34.295,53.681 33.7822,44.1148 34.295,53.681 36.222,54.1485 24.8073,51.2396 47.4323,32.8978 26.9595,38.2978 53.1977,68.5983 53.807,39.8846 24.8756,65.1961 31.9092,39.8813 52.653,28.3372 27.739,30.7568 29.1779,48.4083 25.7623,46.704 53.5102,49.4488 33.7822,44.1148 52.2102,49.9061 23.7527,41.0832" fill="none" stroke="rgb(195,213,229)" stroke-width="3.80668" stroke-linecap="round" stroke-linejoin="round" />
<polyline points="48.6762,69.042 33.9993,40.4211 50.0395,28.7465 24.8756,65.1961 27.1322,25.5395 33.3636,43.7857 50.1106,40.6409 27.102,25.6043 36.2184,38.827 38.0179,39.0173 37.6047,63.3497 39.7443,27.2183 29.8475,38.4342 47.6209,34.6648 27.3663,36.6079 32.2293,33.1287 33.7822,44.1148 42.4675,48.5748 28.8437,37.4555 37.6047,63.3497 50.1106,40.6409 47.4323,32.8978 27.739,30.7568 37.3552,23.8975 27.739,30.7568 45.5864,61.764 35.9347,44.8125 27.0051,55.7301 26.5947,27.9811 44.5211,62.1356 33.9946,68.2328 53.5102,49.4488 52.2102,49.9061 43.5044,43.333 45.3492,68.4098 37.8188,36.281 37.0739,30.9535 31.8846,37.855 42.6346,35.4021 27.102,25.6043 40.347,50.9925 31.8846,37.855 42.4675,48.5748 43.3088,57.5348 53.807,39.8846 45.5864,61.764 53.1977,68.5983 28.258,53.4813 24.8073,51.2396 47.6617,59.4853 23.9172,39.2447 48.5255,34.9222 40.347,50.9925 44.5211,62.1356 35.9347,44.8125 28.999,65.2738 36.2111,57.8161 29.8475,38.4342 27.0102,37.0694 50.1106,40.6409 24.8073,51.2396 48.5255,34.9222 53.3997,28.7792 52.2158,69.1803 31.5923,26.3805 52.2158,69.1803 50.1106,40.6409 48.6762,69.042" fill="none" stroke="rgba(168,47,252,0.656933)" stroke-width="3.80668" stroke-linecap="round" stroke-linejoin="round" />
<polyline points="40.347,50.9925 47.6617,59.4853 31.8846,37.855 52.653,28.3372 27.8068,25.4897 29.3752,50.1785 42.2059,64.9943 36.1193,48.6127 44.5211,62.1356 47.4903,61.7186 34.7338,25.767 47.6209,34.6648 37.6047,63.3497 31.9092,39.8813 53.3997,28.7792 53.1512,26.1951 43.5044,43.333 31.8846,37.855 27.1322,25.5395 43.5044,43.333 50.1106,40.6409 40.347,50.9925 44.15,49.2954 27.1322,25.5395 23.7646,61.2579 27.3663,36.6079 33.3636,43.7857 52.653,28.3372 42.6346,35.4021 31.5923,26.3805 53.1977,68.5983 31.5923,26.3805 42.6346,35.4021 52.653,28.3372 33.3636,43.7857 27.3663,36.6079 23.7646,61.2579 27.1322,25.5395 44.15,49.2954 40.347,50.9925 50.1106,40.6409 43.5044,43.333 27.1322,25.5395 31.8846,37.855 43.5044,43.333 53.1512,26.1951 53.3997,28.7792 31.9092,39.8813 37.6047,63.3497 47.6209,34.6648 34.7338,25.767 47.4903,61.7186 44.5211,62.1356 36.1193,48.6127 42.2059,64.9943 29.3752,50.1785 27.8068,25.4897 52.653,28.3372 31.8846,37.855 47.6617,59.4853 40.347,50.9925" fill="none" stroke="rgba(240,209,89,0.0946878)" stroke-width="3.80668" stroke-linecap="round" stroke-linejoin="round" />
<polyline points="27.8068,25.4897 47.4323,32.8978 29.3752,50.1785 35.0572,53.6018 36.2111,57.8161 53.1977,68.5983 33.9993,40.4211 52.2158,69.1803 33.9993,40.4211 53.1977,68.5983 36.2111,57.8161 35.0572,53.6018 29.3752,50.1785 47.4323,32.8978 27.8068,25.4897" fill="none" stroke="rgba(47,252,151,0.8751)" stroke-width="3.80668" stroke-linecap="round" stroke-linejoin="round" />
<polyline points="53.1977,68.5983 35.9347,44.8125 27.3663,36.6079 27.0102,37.0694 43.3088,57.5348 32.2293,33.1287 47.1093,34.6718 51.3955,70.0096 43.5044,43.333 31.8721,50.994 50.0395,28.7465 45.3492,68.4098 52.2102,49.9061 32.7456,25.9109 34.7338,25.767 26.2209,42.7327 48.5468,23.7527 23.7646,61.2579 28.8437,37.4555 37.682,38.5977 42.2059,64.9943 53.3997,28.7792 52.653,28.3372 26.2209,42.7327 37.9963,45.1079 27.739,30.7568 27.0051,55.7301 54.0647,69.0067 37.8188,36.281 33.9993,40.4211 29.3752,50.1785 33.9946,68.2328 34.7338,25.767 37.8188,36.281 28.8437,37.4555 26.2209,42.7327 47.1093,34.6718 25.3903,68.0127 52.2158,69.1803 35.0572,53.6018 42.0127,71.2678 36.2111,57.8161 45.1077,66.5645 36.2184,38.827 50.8039,35.2619 29.8475,38.4342 36.1193,48.6127 51.4522,62.314 36.222,54.1485 37.0739,30.9535 27.0051,55.7301 51.4522,62.314 33.9946,68.2328 54.1724,35.0457 27.8068,25.4897 26.2209,42.7327 51.4522,62.314 32.7456,25.9109 31.8846,37.855 51.4522,62.314 47.6209,34.6648 31.8846,37.855 44.15,49.2954 52.2102,49.9061 34.7338,25.767 44.5211,62.1356 31.8721,50.994 37.3552,23.8975 52.3002,50.8189 26.2209,42.7327 35.0572,53.6018 37.682,38.5977 27.0102,37.0694 53.1977,68.5983" fill="none" stroke="rgba(59,108,101,0.408206)" stroke-width="3.80668" stroke-linecap="round" stroke-linejoin="round" />
<polyline points="34.7338,25.767 41.8231,61.719 47.1093,34.6718 37.6047,63.3497 36.2111,57.8161 52.653,28.3372 23.7646,61.2579 27.0051,55.7301 36.222,54.1485 29.8475,38.4342 24.5626,27.5781 53.1512,26.1951 38.0179,39.0173 28.8437,37.4555 26.2209,42.7327 29.8475,38.4342 27.1322,25.5395 41.4908,57.6783 40.4546,48.4947 41.4908,57.6783 27.1322,25.5395 29.8475,38.4342 26.2209,42.7327 28.8437,37.4555 38.0179,39.0173 53.1512,26.1951 24.5626,27.5781 29.8475,38.4342 36.222,54.1485 27.0051,55.7301 23.7646,61.2579 52.653,28.3372 36.2111,57.8161 37.6047,63.3497 47.1093,34.6718 41.8231,61.719 34.7338,25.767" fill="none" stroke="rgba(159,113,113,0.695009)" stroke-width="3.80668" stroke-linecap="round" stroke-linejoin="round" />
<polyline points="48.5468,23.7527 28.999,65.2738 31.8846,37.855 35.0572,53.6018 47.4323,32.8978 52.653,28.3372 28.999,65.2738 44.5211,62.1356 34.7338,25.767 48.5255,34.9222 37.682,38.5977 34.295,53.681 53.5102,49.4488 43.5044,43.333 23.7527,41.0832 47.6617,59.4853 33.9993,40.4211 29.1779,48.4083 40.4546,48.4947 32.7456,25.9109 50.8039,35.2619 37.6047,63.3497 52.653,28.3372 27.3663,36.6079 27.102,25.6043 50.3376,27.2318 42.4675,48.5748 36.222,54.1485 24.8756,65.1961 53.5102,49.4488 27.102,25.6043 28.2395,62.915 44.15,49.2954 50.3376,27.2318 48.5468,23.7527" fill="none" stroke="rgb(28,116,43)" stroke-width="3.80668" stroke-linecap="round" stroke-linejoin="round" />
<polyline points="40.347,50.9925 27.102,25.6043 33.9993,40.4211 54.0647,69.0067 25.7623,46.704 48.5255,34.9222 37.6047,63.3497 26.5947,27.9811 28.999,65.2738 50.5011,46.1635 31.9092,39.8813 28.2395,62.915 53.3997,28.7792 50.1106,40.6409 40.347,50.9925 25.4924,47.7694 37.9963,45.1079 37.8188,36.281 47.4903,61.7186 48.5468,23.7527 36.2111,57.8161 43.5044,43.333 36.2111,57.8161 48.5468,23.7527 47.4903,61.7186 37.8188,36.281 37.9963,45.1079 25.4924,47.7694 40.347,50.9925 50.1106,40.6409 53.3997,28.7792 28.2395,62.915 31.9092,39.8813 50.5011,46.1635 28.999,65.2738 26.5947,27.9811 37.6047,63.3497 48.5255,34.9222 25.7623,46.704 54.0647,69.0067 33.9993,40.4211 27.102,25.6043 40.347,50.9925" fill="none" stroke="rgb(214,127,135)" stroke-width="3.80668" stroke-linecap="round" stroke-linejoin="round" />
<polyline points="33.3636,43.7857 40.347,50.9925 25.7623,46.704 50.5011,46.1635 26.9595,38.2978 42.4675,48.5748 26.9595,38.2978 50.5011,46.1635 25.7623,46.704 40.347,50.9925 33.3636,43.7857" fill="none" stroke="rgb(195,213,229)" stroke-width="3.80668" stroke-linecap="round" stroke-linejoin="round" />
<polyline points="27.1322,25.5395 26.2209,42.7327 41.8231,61.719 48.6762,69.042 25.3903,68.0127 48.6762,69.042 41.8231,61.719 26.2209,42.7327 27.1322,25.5395" fill="none" stroke="rgba(168,47,252,0.656933)" stroke-width="3.80668" stroke-linecap="round" stroke-linejoin="round" />
<polyline points="52.653,28.3372 33.7822,44.1148 42.9024,28.3818 36.2111,57.8161 41.3554,40.7081 44.15,49.2954 29.1779,48.4083 31.3384,69.8498 37.6047,63.3497 33.7822,44.1148 29.8475,38.4342 38.0179,39.0173 28.258,53.4813 33.7822,44.1148 52.653,28.3372" fill="none" stroke="rgba(240,209,89,0.0946878)" stroke-width="3.80668" stroke-linecap="round" stroke-linejoin="round" />
<polyline points="31.8721,50.994 43.5044,43.333 44.5211,62.1356 33.9946,68.2328 31.3384,69.8498 45.3492,68.4098 53.1977,68.5983 33.3636,43.7857 35.0572,53.6018 40.4546,48.4947 54.0647,69.0067 40.347,50.9925 52.3002,50.8189 48.5255,34.9222 31.9092,39.8813 51.3955,70.0096 33.3636,43.7857 53.1512,26.1951 52.2102,49.9061 35.0572,53.6018 45.3492,68.4098 32.7456,25.9109 26.2209,42.7327 45.5864,61.764 37.8188,36.281 47.6617,59.4853 53.5102,49.4488 24.8073,51.2396 36.2184,38.827 51.3955,70.0096 36.2184,38.827 28.8437,37.4555 36.222,54.1485 50.8039,35.2619 45.3492,68.4098 26.5947,27.9811 29.3752,50.1785 32.2293,33.1287 31.8721,50.994 48.5468,23.7527 35.9347,44.8125 50.5011,46.1635 43.1964,39.4247 50.0395,28.7465 48.6762,69.042 27.739,30.7568 48.6762,69.042 50.0395,28.7465 43.1964,39.4247 50.5011,46.1635 35.9347,44.8125 48.5468,23.7527 31.8721,50.994 32.2293,33.1287 29.3752,50.1785 26.5947,27.9811 45.3492,68.4098 50.8039,35.2619 36.222,54.1485 28.8437,37.4555 36.2184,38.827 51.3955,70.0096 36.2184,38.827 24.8073,51.2396 53.5102,49.4488 47.6617,59.4853 37.8188,36.281 45.5864,61.764 26.2209,42.7327 32.7456,25.9109 45.3492,68.4098 35.0572,53.6018 52.2102,49.9061 53.1512,26.1951 33.3636,43.7857 51.3955,70.0096 31.9092,39.8813 48.5255,34.9222 52.3002,50.8189 40.347,50.9925 54.0647,69.0067 40.4546,48.4947 35.0572,53.6018 33.3636,43.7857 53.1977,68.5983 45.3492,68.4098 31.3384,69.8498 33.9946,68.2328 44.5211,62.1356 43.5044,43.333 31.8721,50.994" fill="none" stroke="rgba(47,252,151,0.8751)" stroke-width="3.80668" stroke-linecap="round" stroke-linejoin="round" />
<polyline points="50.1106,40.6409 45.5864,61.764 50.8039,35.2619 43.1964,39.4247 27.102,25.6043 31.8721,50.994 44.15,49.2954 25.7623,46.704 33.3636,43.7857 27.0102,37.0694 33.9946,68.2328 41.8231,61.719 54.1724,35.0457 40.347,50.9925 33.9946,68.2328 36.2184,38.827 45.3492,68.4098 38.0179,39.0173 40.0062,54.8282 24.8756,65.1961 28.8437,37.4555 53.1512,26.1951 27.8068,25.4897 31.8846,37.855 54.0647,69.0067 52.2158,69.1803 53.5102,49.4488 54.1724,35.0457 34.7338,25.767 41.8231,61.719 23.7527,41.0832 38.0179,39.0173 42.2059,64.9943 27.102,25.6043 28.258,53.4813 38.0179,39.0173 36.1193,48.6127 37.8188,36.281 26.9595,38.2978 54.1724,35.0457 31.8721,50.994 33.7822,44.1148 52.653,28.3372 25.4924,47.7694 39.7443,27.2183 42.9024,28.3818 40.347,50.9925 31.9092,39.8813 32.7456,25.9109 23.7646,61.2579 53.807,39.8846 54.1724,35.0457 42.6346,35.4021 40.347,50.9925 53.5102,49.4488 47.6617,59.4853 29.3752,50.1785 40.347,50.9925 25.4924,47.7694 28.258,53.4813 50.5011,46.1635 36.1193,48.6127 28.8437,37.4555 52.2158,69.1803 33.3636,43.7857 33.7822,44.1148 27.102,25.6043 31.8846,37.855 53.1512,26.1951 27.1322,25.5395 37.3552,23.8975 24.8073,51.2396 42.2059,64.9943 26.9595,38.2978 53.807,39.8846 36.222,54.1485 44.15,49.2954 24.8073,51.2396 32.2293,33.1287 27.0102,37.0694 53.1977,68.5983 34.295,53.681 40.0062,54.8282 42.6346,35.4021 42.9024,28.3818 43.3088,57.5348 25.3903,68.0127 33.9993,40.4211 50.1106,40.6409" fill="none" stroke="rgba(59,108,101,0.408206)" stroke-width="3.80668" stroke-linecap="round" stroke-linejoin="round" />
<polyline points="44.5211,62.1356 47.1093,34.6718 31.8721,50.994 42.0127,71.2678 27.739,30.7568 45.5864,61.764 40.4546,48.4947 27.8068,25.4897 50.3376,27.2318 36.1193,48.6127 54.0647,69.0067 42.0127,71.2678 24.5626,27.5781 47.6617,59.4853 47.1093,34.6718 47.4323,32.8978 34.295,53.681 23.7646,61.2579 43.3088,57.5348 45.3492,68.4098 25.7623,46.704 27.8068,25.4897 42.6346,35.4021 36.1193,48.6127 51.3955,70.0096 43.3088,57.5348 50.5011,46.1635 27.739,30.7568 42.0127,71.2678 23.9172,39.2447 50.1106,40.6409 52.3002,50.8189 33.9993,40.4211 34.295,53.681 32.7456,25.9109 37.9963,45.1079 35.0572,53.6018 53.1977,68.5983 25.3903,68.0127 40.0062,54.8282 23.7646,61.2579 27.102,25.6043 27.1322,25.5395 32.2293,33.1287 36.1193,48.6127 27.739,30.7568 37.682,38.5977 47.1093,34.6718 53.3997,28.7792 34.7338,25.767 53.3997,28.7792 47.1093,34.6718 37.682,38.5977 27.739,30.7568 36.1193,48.6127 32.2293,33.1287 27.1322,25.5395 27.102,25.6043 23.7646,61.2579 40.0062,54.8282 25.3903,68.0127 53.1977,68.5983 35.0572,53.6018 37.9963,45.1079 32.7456,25.9109 34.295,53.681 33.9993,40.4211 52.3002,50.8189 50.1106,40.6409 23.9172,39.2447 42.0127,71.2678 27.739,30.7568 50.5011,46.1635 43.3088,57.5348 51.3955,70.0096 36.1193,48.6127 42.6346,35.4021 27.8068,25.4897 25.7623,46.704 45.3492,68.4098 43.3088,57.5348 23.7646,61.2579 34.295,53.681 47.4323,32.8978 47.1093,34.6718 47.6617,59.4853 24.5626,27.5781 42.0127,71.2678 54.0647,69.0067 36.1193,48.6127 50.3376,27.2318 27.8068,25.4897 40.4546,48.4947 45.5864,61.764 27.739,30.7568 42.0127,71.2678 31.8721,50.994 47.1093,34.6718 44.5211,62.1356" fill="none" stroke="rgba(159,113,113,0.695009)" stroke-width="3.80668" stroke-linecap="round" stroke-linejoin="round" />
<polyline points="42.0127,71.2678 51.4522,62.314 29.3752,50.1785 28.999,65.2738 36.2184,38.827 41.3554,40.7081 52.3002,50.8189 29.8475,38.4342 50.1106,40.6409 35.9347,44.8125 31.8846,37.855 34.7338,25.767 52.2158,69.1803 26.9595,38.2978 50.1106,40.6409 25.7623,46.704 47.6209,34.6648 41.3554,40.7081 52.2102,49.9061 47.4903,61.7186 26.9595,38.2978 53.1512,26.1951 23.7527,41.0832 29.8475,38.4342 26.5947,27.9811 36.2184,38.827 28.2395,62.915 52.2102,49.9061 42.0127,71.2678" fill="none" stroke="rgb(28,116,43)" stroke-width="3.80668" stroke-linecap="round" stroke-linejoin="round" />
<polyline points="47.4323,32.8978 50.8039,35.2619 31.9092,39.8813 39.7443,27.2183 45.3492,68.4098 47.6209,34.6648 41.4908,57.6783 33.9993,40.4211 47.4903,61.7186 47.6209,34.6648 48.5468,23.7527 36.2184,38.827 33.7822,44.1148 24.8756,65.1961 23.7646,61.2579 23.9172,39.2447 42.2059,64.9943 48.6762,69.042 45.5864,61.764 29.3752,50.1785 53.5102,49.4488 25.7623,46.704 33.3636,43.7857 49.8024,43.5967 53.1977,68.5983 31.5923,26.3805 27.0102,37.0694 53.1977,68.5983 29.3752,50.1785 37.682,38.5977 51.3955,70.0096 37.682,38.5977 29.3752,50.1785 53.1977,68.5983 27.0102,37.0694 31.5923,26.3805 53.1977,68.5983 49.8024,43.5967 33.3636,43.7857 25.7623,46.704 53.5102,49.4488 29.3752,50.1785 45.5864,61.764 48.6762,69.042 42.2059,64.9943 23.9172,39.2447 23.7646,61.2579 24.8756,65.1961 33.7822,44.1148 36.2184,38.827 48.5468,23.7527 47.6209,34.6648 47.4903,61.7186 33.9993,40.4211 41.4908,57.6783 47.6209,34.6648 45.3492,68.4098 39.7443,27.2183 31.9092,39.8813 50.8039,35.2619 47.4323,32.8978" fill="none" stroke="rgb(214,127,135)" stroke-width="3.80668" stroke-linecap="round" stroke-linejoin="round" />
<polyline points="43.3088,57.5348 40.4546,48.4947 28.258,53.4813 27.102,25.6043 43.5044,43.333 49.8024,43.5967 33.3636,43.7857 23.9172,39.2447 50.0395,28.7465 40.4546,48.4947 53.5102,49.4488 40.347,50.9925 28.258,53.4813 26.2209,42.7327 50.0395,28.7465 47.6617,59.4853 33.7822,44.1148 36.2184,38.827 28.999,65.2738 35.9347,44.8125 33.9946,68.2328 47.6617,59.4853 34.7338,25.767 26.9595,38.2978 27.102,25.6043 52.2102,49.9061 48.5255,34.9222 34.7338,25.767 44.5211,62.1356 47.6209,34.6648 44.5211,62.1356 53.3997,28.7792 27.1322,25.5395 33.9946,68.2328 53.5102,49.4488 37.682,38.5977 31.8721,50.994 42.6346,35.4021 54.1724,35.0457 27.102,25.6043 47.6209,34.6648 33.7822,44.1148 37.0739,30.9535 23.7527,41.0832 50.1106,40.6409 37.682,38.5977 33.3636,43.7857 23.7646,61.2579 53.1977,68.5983 28.999,65.2738 24.8756,65.1961 31.5923,26.3805 31.8846,37.855 36.2111,57.8161 41.8231,61.719 50.0395,28.7465 53.1512,26.1951 33.3636,43.7857 28.2395,62.915 24.8073,51.2396 41.4908,57.6783 34.5768,34.8313 53.1512,26.1951 44.5211,62.1356 32.2293,33.1287 50.0395,28.7465 48.5468,23.7527 51.4522,62.314 25.3903,68.0127 34.5768,34.8313 34.7338,25.767 31.8846,37.855 42.4675,48.5748 43.3088,57.5348" fill="none" stroke="rgb(195,213,229)" stroke-width="3.80668" stroke-linecap="round" stroke-linejoin="round" />
<polyline points="31.9092,39.8813 53.5102,49.4488 50.1106,40.6409 39.7443,27.2183 31.9092,39.8813" fill="none" stroke="rgba(168,47,252,0.656933)" stroke-width="3.80668" stroke-linecap="round" stroke-linejoin="round" />
<polyline points="28.258,53.4813 29.3752,50.1785 36.222,54.1485 53.1512,26.1951 37.3552,23.8975 42.4675,48.5748 41.3554,40.7081 34.5768,34.8313 27.739,30.7568 25.4924,47.7694 48.5255,34.9222 51.4522,62.314 53.3997,28.7792 36.1193,48.6127 45.5864,61.764 47.1093,34.6718 45.3492,68.4098 52.2102,49.9061 25.4924,47.7694 39.7443,27.2183 42.0127,71.2678 37.682,38.5977 52.2102,49.9061 45.1077,66.5645 41.8231,61.719 48.6762,69.042 25.4924,47.7694 45.5864,61.764 34.5768,34.8313 42.6346,35.4021 39.7443,27.2183 36.2184,38.827 39.7443,27.2183 53.1512,26.1951 26.5947,27.9811 28.258,53.4813" fill="none" stroke="rgba(240,209,89,0.0946878)" stroke-width="3.80668" stroke-linecap="round" stroke-linejoin="round" />
<polyline points="27.0102,37.0694 33.7822,44.1148 39.7443,27.2183 24.5626,27.5781 37.682,38.5977 47.6617,59.4853 28.8437,37.4555 25.3903,68.0127 31.8721,50.994 44.5211,62.1356 47.6209,34.6648 53.3997,28.7792 23.7527,41.0832 43.1964,39.4247 27.102,25.6043 33.7822,44.1148 37.0739,30.9535 43.3088,57.5348 41.3554,40.7081 45.3492,68.4098 37.9963,45.1079 40.0062,54.8282 25.4924,47.7694 53.3997,28.7792 42.6346,35.4021 31.5923,26.3805 39.7443,27.2183 36.1193,48.6127 48.5468,23.7527 24.8073,51.2396 26.9595,38.2978 37.0739,30.9535 47.4323,32.8978 52.2102,49.9061 45.3492,68.4098 52.2102,49.9061 47.4323,32.8978 37.0739,30.9535 26.9595,38.2978 24.8073,51.2396 48.5468,23.7527 36.1193,48.6127 39.7443,27.2183 31.5923,26.3805 42.6346,35.4021 53.3997,28.7792 25.4924,47.7694 40.0062,54.8282 37.9963,45.1079 45.3492,68.4098 41.3554,40.7081 43.3088,57.5348 37.0739,30.9535 33.7822,44.1148 27.102,25.6043 43.1964,39.4247 23.7527,41.0832 53.3997,28.7792 47.6209,34.6648 44.5211,62.1356 31.8721,50.994 25.3903,68.0127 28.8437,37.4555 47.6617,59.4853 37.682,38.5977 24.5626,27.5781 39.7443,27.2183 33.7822,44.1148 27.0102,37.0694" fill="none" stroke="rgba(47,252,151,0.8751)" stroke-width="3.80668" stroke-linecap="round" stroke-linejoin="round" />
<polyline points="41.4908,57.6783 42.4675,48.5748 34.5768,34.8313 49.8024,43.5967 53.1512,26.1951 31.9092,39.8813 28.258,53.4813 37.6047,63.3497 52.2102,49.9061 31.9092,39.8813 28.2395,62.915 24.8756,65.1961 23.7527,41.0832 35.9347,44.8125 50.8039,35.2619 36.2184,38.827 50.8039,35.2619 35.9347,44.8125 23.7527,41.0832 24.8756,65.1961 28.2395,62.915 31.9092,39.8813 52.2102,49.9061 37.6047,63.3497 28.258,53.4813 31.9092,39.8813 53.1512,26.1951 49.8024,43.5967 34.5768,34.8313 42.4675,48.5748 41.4908,57.6783" fill="none" stroke="rgba(59,108,101,0.408206)" stroke-width="3.80668" stroke-linecap="round" stroke-linejoin="round" />
<polyline points="50.5011,46.1635 52.2102,49.9061 24.8073,51.2396 47.4323,32.8978 40.4546,48.4947 52.2102,49.9061 48.5468,23.7527 28.8437,37.4555 37.8188,36.281 42.4675,48.5748 54.1724,35.0457 47.6209,34.6648 49.8024,43.5967 23.7646,61.2579 45.3492,68.4098 49.8024,43.5967 53.807,39.8846 42.2059,64.9943 41.4908,57.6783 44.5211,62.1356 52.653,28.3372 41.8231,61.719 48.5255,34.9222 34.7338,25.767 42.9024,28.3818 27.1322,25.5395 28.258,53.4813 23.7646,61.2579 26.9595,38.2978 41.3554,40.7081 41.4908,57.6783 44.5211,62.1356 37.9963,45.1079 42.6346,35.4021 51.4522,62.314 47.6617,59.4853 36.2184,38.827 28.8437,37.4555 32.7456,25.9109 52.2158,69.1803 35.0572,53.6018 50.1106,40.6409 33.3636,43.7857 41.4908,57.6783 26.9595,38.2978 50.0395,28.7465 31.9092,39.8813 34.295,53.681 47.4323,32.8978 32.2293,33.1287 43.5044,43.333 45.5864,61.764 47.4903,61.7186 31.3384,69.8498 37.8188,36.281 24.5626,27.5781 47.4323,32.8978 51.3955,70.0096 54.0647,69.0067 41.4908,57.6783 42.9024,28.3818 29.8475,38.4342 47.4323,32.8978 37.9963,45.1079 27.1322,25.5395 37.8188,36.281 33.3636,43.7857 42.2059,64.9943 26.2209,42.7327 47.4323,32.8978 48.6762,69.042 50.5011,46.1635" fill="none" stroke="rgba(159,113,113,0.695009)" stroke-width="3.80668" stroke-linecap="round" stroke-linejoin="round" />
<polyline points="23.7646,61.2579 37.6047,63.3497 28.2395,62.915 31.9092,39.8813 29.3752,50.1785 48.5255,34.9222 27.0102,37.0694 29.8475,38.4342 43.3088,57.5348 27.3663,36.6079 29.8475,38.4342 50.3376,27.2318 44.5211,62.1356 42.2059,64.9943 34.5768,34.8313 27.0102,37.0694 52.2158,69.1803 37.9963,45.1079 26.9595,38.2978 47.6617,59.4853 25.7623,46.704 52.3002,50.8189 45.3492,68.4098 42.4675,48.5748 37.3552,23.8975 54.0647,69.0067 37.0739,30.9535 52.2158,69.1803 36.2111,57.8161 27.0051,55.7301 43.5044,43.333 43.1964,39.4247 29.3752,50.1785 50.8039,35.2619 29.1779,48.4083 45.3492,68.4098 42.2059,64.9943 26.5947,27.9811 31.8846,37.855 50.8039,35.2619 36.2184,38.827 50.8039,35.2619 31.8846,37.855 26.5947,27.9811 42.2059,64.9943 45.3492,68.4098 29.1779,48.4083 50.8039,35.2619 29.3752,50.1785 43.1964,39.4247 43.5044,43.333 27.0051,55.7301 36.2111,57.8161 52.2158,69.1803 37.0739,30.9535 54.0647,69.0067 37.3552,23.8975 42.4675,48.5748 45.3492,68.4098 52.3002,50.8189 25.7623,46.704 47.6617,59.4853 26.9595,38.2978 37.9963,45.1079 52.2158,69.1803 27.0102,37.0694 34.5768,34.8313 42.2059,64.9943 44.5211,62.1356 50.3376,27.2318 29.8475,38.4342 27.3663,36.6079 43.3088,57.5348 29.8475,38.4342 27.0102,37.0694 48.5255,34.9222 29.3752,50.1785 31.9092,39.8813 28.2395,62.915 37.6047,63.3497 23.7646,61.2579" fill="none" stroke="rgb(28,116,43)" stroke-width="3.80668" stroke-linecap="round" stroke-linejoin="round" />
<polyline points="27.0102,37.0694 51.3955,70.0096 40.4546,48.4947 50.5011,46.1635 33.7822,44.1148 37.8188,36.281 27.8068,25.4897 54.1724,35.0457 33.7822,44.1148 29.3752,50.1785 40.0062,54.8282 47.4323,32.8978 50.0395,28.7465 38.0179,39.0173 29.8475,38.4342 33.9946,68.2328 23.9172,39.2447 36.2184,38.827 27.0102,37.0694" fill="none" stroke="rgb(214,127,135)" stroke-width="3.80668" stroke-linecap="round" stroke-linejoin="round" />
<polyline points="45.5864,61.764 53.1977,68.5983 47.6209,34.6648 43.5044,43.333 50.1106,40.6409 48.5468,23.7527 29.8475,38.4342 31.8846,37.855 42.9024,28.3818 23.9172,39.2447 45.3492,68.4098 39.7443,27.2183 47.4323,32.8978 39.7443,27.2183 38.0179,39.0173 23.7646,61.2579 51.3955,70.0096 29.1779,48.4083 28.8437,37.4555 31.3384,69.8498 37.3552,23.8975 25.3903,68.0127 42.0127,71.2678 28.8437,37.4555 32.2293,33.1287 53.5102,49.4488 25.3903,68.0127 27.739,30.7568 51.3955,70.0096 47.4323,32.8978 40.0062,54.8282 52.2158,69.1803 53.1512,26.1951 54.1724,35.0457 42.6346,35.4021 33.7822,44.1148 24.8756,65.1961 45.3492,68.4098 41.4908,57.6783 52.653,28.3372 41.3554,40.7081 42.0127,71.2678 53.3997,28.7792 29.1779,48.4083 31.9092,39.8813 27.739,30.7568 44.15,49.2954 31.3384,69.8498 40.347,50.9925 51.4522,62.314 36.222,54.1485 53.1512,26.1951 25.3903,68.0127 23.9172,39.2447 37.0739,30.9535 31.3384,69.8498 53.1512,26.1951 27.3663,36.6079 36.2184,38.827 29.8475,38.4342 47.4323,32.8978 42.2059,64.9943 25.4924,47.7694 27.8068,25.4897 39.7443,27.2183 36.2111,57.8161 37.3552,23.8975 48.6762,69.042 36.2184,38.827 25.3903,68.0127 33.3636,43.7857 26.5947,27.9811 45.5864,61.764 42.0127,71.2678 52.3002,50.8189 42.2059,64.9943 47.1093,34.6718 28.999,65.2738 37.3552,23.8975 38.0179,39.0173 23.9172,39.2447 27.739,30.7568 43.3088,57.5348 52.3002,50.8189 24.8756,65.1961 52.2102,49.9061 45.5864,61.764 42.0127,71.2678 50.1106,40.6409 50.0395,28.7465 42.6346,35.4021 27.102,25.6043 52.3002,50.8189 44.15,49.2954 27.0051,55.7301 45.5864,61.764" fill="none" stroke="rgb(195,213,229)" stroke-width="3.80668" stroke-linecap="round" stroke-linejoin="round" />
</svg>